<?xml version="1.0" encoding="UTF-8"?><svg id="Livello_1" xmlns="http://www.w3.org/2000/svg" viewBox="0 0 481.4 272.63"><defs><style>.cls-1{fill:none;stroke:#a90d3c;stroke-miterlimit:10;}</style></defs><path class="cls-1" d="M132.75,87.57c1.01,0,1.79.16,2.34.48.55.32.83.76.83,1.31,0,3.12-.09,6.98-.28,11.57l-.14,4.96-.83,12.67v9.64l.41,8.4c.18,2.94.27,6.98.27,12.12.09,1.01.14,3.26.14,6.75,0,9.18.32,15.33.97,18.45,10.92.46,16.39,1.1,16.39,1.93l.41,5.92c.18,1.84-.83,2.75-3.03,2.75-3.86,0-7.34-.18-10.47-.55-1.56-.18-4.13-.36-7.71-.55-4.41.28-10.33.55-17.76.83l-5.37-.14c-3.21,0-6.84.14-10.88.41-.92,0-1.61-1.33-2.07-3.99,0-.18-.02-.37-.07-.55-.05-.18-.02-.41.07-.69,0-2.02.55-3.17,1.65-3.44,5.6-.73,10.69-1.65,15.28-2.75,4.5.09,6.75-.92,6.75-3.03.09-1.47.14-3.44.14-5.92,0-2.94-.05-5.55-.14-7.85v-12.39c.09-4.5,0-8.81-.28-12.95l-.14-6.88.14-7.02.41-13.36-16.25,3.86c-2.94.64-4.68.96-5.23.96-1.01,0-1.51-.23-1.51-.69-.27-.46-.41-1.01-.41-1.65-.09-3.58,0-5.92.28-7.02.36-.92,1.56-1.79,3.58-2.62,9-.46,18.68-3.26,29.05-8.4,1.19-.37,2.34-.55,3.44-.55Z"/><path class="cls-1" d="M218.26,95.21c4.68,6.29,8.01,13.38,9.98,21.27,1.97,7.9,2.96,14.46,2.96,19.69,0,15.61-1.79,26.48-5.37,32.63-2.02,3.77-4.06,7.02-6.13,9.78-2.06,2.75-4.77,5.16-8.12,7.23-3.35,2.06-7.28,3.1-11.77,3.1s-8.45-.97-11.84-2.89c-3.4-1.93-6.15-4.2-8.26-6.82-2.11-2.62-4.27-5.76-6.47-9.43-1.38-2.39-2.06-4.45-2.06-6.2,0-1.38.41-2.41,1.24-3.1.83-.69,1.61-1.03,2.34-1.03s1.65-.07,2.75-.21c1.1-.14,2.15-.21,3.17-.21,1.1,0,2.02.28,2.75.83.73.55,1.51,1.42,2.34,2.62,1.47,2.02,3.17,3.63,5.09,4.82,1.93,1.19,4.96,1.79,9.09,1.79,3.58,0,6.36-1.22,8.33-3.65,1.97-2.43,3.37-5.53,4.2-9.3,1.01-3.76,1.42-8.12,1.24-13.08-1.84,2.11-3.72,3.99-5.64,5.65-4.5,3.77-8.12,5.65-10.88,5.65-4.32,0-8.49-.53-12.53-1.58-4.04-1.05-7.8-3.72-11.29-7.99-3.49-4.27-5.23-10.81-5.23-19.62,0-9.64,1.81-17.4,5.44-23.27,3.63-5.87,7.87-10.03,12.74-12.46,4.86-2.43,9.32-3.65,13.36-3.65,7.71,0,13.91,3.15,18.59,9.43ZM210.62,115.66c-.41-2.75-1.74-5.35-3.99-7.78-2.25-2.43-5.76-3.65-10.53-3.65-2.11,0-4.29.67-6.54,2-2.25,1.33-4.13,3.33-5.65,5.99-1.51,2.66-2.27,5.88-2.27,9.64,0,5.6,1.51,9.76,4.54,12.46,3.03,2.71,6.42,4.06,10.19,4.06,2.11,0,4.29-.64,6.54-1.93,2.25-1.28,4.15-2.96,5.71-5.02,1.56-2.07,2.43-4.11,2.62-6.13,0-3.67-.21-6.89-.62-9.64Z"/><path class="cls-1" d="M299.09,136.59c5.32,5.69,7.99,12.39,7.99,20.1,0,5.88-1.45,10.97-4.34,15.28-2.89,4.32-6.82,7.62-11.77,9.92-4.96,2.3-10.56,3.44-16.8,3.44-10.1,0-17.69-2.27-22.79-6.82-5.1-4.54-7.64-10.76-7.64-18.66s4.36-15.33,13.08-22.58c3.86-3.03,8.26-5.65,13.22-7.85l-1.38-1.38c-.28-.46-.83-1.01-1.65-1.65-.83-.64-1.51-1.24-2.06-1.79-.55-.37-1.86-1.19-3.93-2.48-2.06-1.28-3.81-3.35-5.23-6.2-1.42-2.84-2.13-6.52-2.13-11.02s1.31-8.63,3.93-11.84c2.62-3.21,5.83-5.58,9.64-7.09,3.81-1.51,7.6-2.27,11.36-2.27,3.03,0,6.38.64,10.05,1.93,3.67,1.29,6.91,3.47,9.71,6.54,2.8,3.08,4.2,7.18,4.2,12.32,0,6.89-1.93,13.36-5.78,19.42-1.47,2.57-3.35,4.77-5.65,6.61,2.84,1.47,5.51,3.49,7.99,6.06ZM289.25,176.04c3.26-2.43,5.83-5.46,7.71-9.09,1.88-3.63,2.82-7.05,2.82-10.26,0-3.76-.97-7.09-2.89-9.98-1.93-2.89-4.36-5.35-7.3-7.37-3.03-2.2-6.38-3.9-10.05-5.09-5.23,2.02-9.92,4.36-14.05,7.02-3.95,2.39-7.25,5.3-9.91,8.74-2.66,3.44-3.99,7.14-3.99,11.08,0,5.42,1.29,9.48,3.86,12.19,2.57,2.71,5.74,4.45,9.5,5.23,3.76.78,8.31,1.17,13.63,1.17,3.86,0,7.41-1.22,10.67-3.65ZM269.35,120.2c2.57,2.29,5.6,4.22,9.09,5.78,2.66-1.19,5.18-2.71,7.57-4.54,5.05-4.13,7.57-8.45,7.57-12.95,0-5.6-1.4-10.05-4.2-13.36-2.8-3.3-6.77-4.96-11.91-4.96-2.2,0-4.64.55-7.3,1.65-2.66,1.1-4.94,2.62-6.82,4.54-1.88,1.93-2.82,3.99-2.82,6.2,0,6.43,2.94,12.3,8.81,17.63Z"/><path class="cls-1" d="M385.29,91.49c.18.87.25,1.86.21,2.96-.05,1.1-.07,1.93-.07,2.48,0,1.47-.34,2.87-1.03,4.2-.69,1.33-2.09,3.56-4.2,6.68-2.02,2.57-6.7,9.18-14.04,19.83h9.91c1.83-.18,2.98.02,3.44.62.46.6.69,1.68.69,3.24v10.33c0,1.1-.34,1.86-1.03,2.27-.69.41-2.04.62-4.06.62h-6.89l-4.96-.41c-1.29-.18-2.66-.27-4.13-.27l-4.41.14c-3.03,4.5-7.94,12.53-14.73,24.1l-4.96,8.26c-.37.74-.81,1.49-1.31,2.27-.51.78-1.03,1.63-1.58,2.55-2.02,3.4-3.26,5.23-3.72,5.51-.09.09-.28.14-.55.14s-.74-.32-1.38-.96c-.64-.64-1.24-1.15-1.79-1.51-.64-.37-.96-.87-.96-1.51,0-.55.73-1.93,2.2-4.13.28-.37,3.21-5.28,8.81-14.73l3.99-6.61c1.01-2.11,3.72-6.56,8.12-13.36h-1.79c-1.65,0-3.84.09-6.54.28-2.71.19-4.48.37-5.3.55-.83,0-1.33-.25-1.51-.76-.19-.5-.28-1.31-.28-2.41v-9.64c0-1.56.18-2.71.55-3.44.37-.73,1.06-1.1,2.07-1.1h23.41c1.56-2.2,3.4-5.05,5.51-8.54,2.48-3.58,5.21-7.8,8.19-12.67,2.98-4.86,4.48-7.48,4.48-7.85,0-.28-.18-.41-.55-.41-.28,0-.64.07-1.1.21-.46.14-.97.21-1.51.21-.64,0-1.77-.07-3.37-.21-1.61-.14-3.74-.21-6.4-.21s-8.56.44-17.69,1.31c-9.14.87-14.53,1.45-16.18,1.72-.92.19-1.56.28-1.93.28-1.56,0-2.34-.73-2.34-2.2l.14-3.44c0-.92-.05-1.56-.14-1.93v-.27c0-.83.23-1.4.69-1.72.46-.32,1.1-.53,1.93-.62l3.58-.14c6.06-.28,9.64-.41,10.74-.41,1.38,0,4.18-.09,8.4-.28,4.59-.18,7.94-.28,10.05-.28,1.84,0,3.08.05,3.72.14,2.02.19,3.99.28,5.92.28,3.12,0,6.61-.09,10.47-.28,1.1-.09,2.29-.14,3.58-.14.92,0,1.47.44,1.65,1.31Z"/></svg>