<?xml version="1.0" encoding="UTF-8"?><svg id="Livello_1" xmlns="http://www.w3.org/2000/svg" viewBox="0 0 481.4 272.63"><defs><style>.cls-1{fill:#a90d3c;stroke-width:0px;}</style></defs><path class="cls-1" d="M336.36,202.81l-.13-.25-.18-.22c-.99-1.15-2.92-4.2-6.56-12.29l-2.39-4.97c-8.88-17.13-14.7-28.64-16.83-33.27-.95-2.44-2.96-6.76-5.92-12.85-5.87-12.51-9.47-20.7-10.73-24.37-3.03-8.69-5.91-15.85-8.54-21.25-8.78-18.95-10.11-22.53-10.27-23.18-.14-.55-.41-1.5-.82-2.85-.53-1.75-1.37-3.05-2.52-3.89-1.28-1.16-2.52-1.12-3.15-.99-2.05.43-2.91,2.6-3.22,3.38-1.6,4.41-2.95,8.71-3.97,12.68l-4.91,15.73c-2.47,7.94-4.99,16.64-7.48,25.78-.82,2.73-1.4,4.95-1.81,6.79-1.18,4.19-2.27,8.15-3.3,12.07-3.67,10.34-6.13,18.97-7.34,25.63-.54,2.97-1.85,8.15-3.9,15.46-1.3-4.23-3.66-11.53-7.14-22.07l-.1-.25c-.71-1.52-2.51-5.99-7.02-18.72l-3.51-9.18-3.74-10.84c-5.3-14.86-6.27-18.14-6.37-18.75l-1.63-5.83c-2.66-10.09-4.49-16.28-5.58-18.91-.29-.85-.77-2.15-1.38-3.74-.68-1.77-1.39-3.33-2.11-4.61-1.09-1.96-2.43-2.96-3.97-2.96-2.51,0-4.58,1.2-5.99,3.44-1.1,1.79-2.15,4.37-3.11,7.66l-.05.21c-.51,2.63-1.56,6.26-3.15,10.77-1.47,4.16-2.47,7.05-2.82,8.08-.98,2.12-2.13,5.43-3.42,9.86l-1.21,4.2-1.35,5.43c-1.68,5.8-3.01,10.79-3.97,14.88-.25,1.13-1.04,3.84-2.35,8.18l-2.75,10.41-.03.14c-.62,3.15-2.2,8.84-4.67,16.92l-1.58,5.51c-1.84,6.45-3.11,11.33-3.77,14.52l-.02.12c-.23,1.55-.66,3.23-1.28,5.13l-1.38,4.13-1.81,7.36-.55,1.67c-.14.44-.24.83-.29,1.2-.12.36-.18.72-.22,1.14-.23.84-.58,2.53.43,3.89.37.51,1.23,1.33,2.85,1.33h3.92c.77,0,1.32-.05,1.7-.15.63-.15,1.76-.64,2.3-2.44.01-.03.01-.06.02-.08l.24-.24.14-.66c.62-2.75,1.05-4.13,1.3-4.8l.39-1.38c.2-.69.41-1.48.66-2.37.45-1.66.67-2.07.67-2.08l.12-.18c1.05-1.93,1.7-4.28,2.01-7.17.91-3.51,1.56-6.42,1.96-8.59,1.9-9.2,2.35-10.78,2.44-11.01l1.29-6.03c.05-.16.08-.3.13-.39h11.78c12.28,0,14.2-.15,14.74-.21l8.49-.4c.89-.08,2.63-.18,5.88-.18.06,0,.1,0,.15.01.15.25.41.75.84,1.66l1.71,5.52c.94,3.26,2.05,6.22,3.26,8.76.63,1.42,1.36,3.45,2.16,6.03.84,2.75,1.44,4.98,1.78,6.74.41,2.74,1.23,5.83,2.45,9.2.86,3.13,1.62,5.6,2.16,7.08.43,1.32,1.02,2.22,1.9,2.76.69.41,1.52.61,2.46.61h11c.74,0,1.35-.07,1.86-.2,1.25-.08,2.32-.66,3.03-1.65.36-.48.83-1.37,1.43-3.77l1.58-5.74,2.16-8.46.03-.14c.38-2.01.85-4.2,1.45-6.67.55-2.24,1.06-4.42,1.47-6.4l1.17-4.82c.15-.49.3-1.12.44-1.89.05-.29.13-.54.21-.76l10.11.18c3.2,0,5.28-.06,6.45-.2,3.6-.25,7.32-.39,11.04-.39,7.02,0,9.2-.21,10.18-.41,1.52-.13,2.96-.25,4.29-.38,1.32-.13,2.42-.2,3.22-.2.23,0,.34.03.34.02.08.1.45.64,1.01,2.35l.13.29c.46.93,1.2,2.47,2.52,5.35,1.38,2.98,1.99,4.64,2.27,5.56.92,2.76,2.24,6.45,4.06,11.29,1.81,4.84,2.99,7.77,3.69,9.19.26.64.58,1.43.97,2.32.43.99.93,2,1.48,2.97.95,1.69,2.15,2.54,3.58,2.54h14.16c5.07,0,5.83-2.42,5.83-3.87,0-.68-.21-1.55-1.22-3.58ZM191.58,144.31c-2.94,0-5.21.14-6.91.4l-11.17.39c-.29,0-.9.03-1.85.09-.4.03-.78.01-1.2-.07.03-.08.06-.18.09-.28.84-2.11,1.92-5.68,3.31-10.93,1.39-5.26,2.45-9.46,3.23-12.85,1.16-3.6,2.45-8.01,3.93-13.47,1.5-5.49,2.66-9.84,3.54-13.28l1.14-4.21c.4,1.25.89,2.85,1.47,4.9.31,1.75,1.21,5.29,2.69,10.54,1.51,5.41,2.95,10.14,4.28,14.14,1.14,3.04,2.31,6.74,3.49,11.04,1.63,5.57,2.81,9.24,3.62,11.25.48,1.19.77,1.99.94,2.52l-10.62-.2ZM260.06,137.63c.07-.34.17-.77.32-1.29.4-1.08,1.09-2.99,2.06-5.78.98-2.8,1.75-5.27,2.31-7.34,1.01-3.8,2.67-9.43,5.09-17.22l.03-.11c.17-.71.4-1.65.68-2.78.24.51.69,1.59,1.51,3.96.71,2.09,1.75,4.76,3.07,7.93.92,2.77,2.54,6.82,4.95,12.4,1.99,4.57,3.3,7.48,4.11,9.1-.51.03-1.06.09-1.7.17l-.14.02c-1.27.24-4.75.46-10.35.64-5.2.18-9.22.29-11.93.3Z"/></svg>