<?xml version="1.0" encoding="UTF-8"?><svg id="Livello_1" xmlns="http://www.w3.org/2000/svg" viewBox="0 0 481.4 272.63"><defs><style>.cls-1{fill:#fff;stroke-width:0px;}</style></defs><path class="cls-1" d="M102.55,149.84c-1.52,0-2.92-.25-4.2-.76-1.28-.5-2.39-1.21-3.33-2.14-.94-.92-1.68-2-2.21-3.23-.53-1.24-.8-2.59-.8-4.07s.27-2.84.8-4.07c.53-1.23,1.27-2.31,2.22-3.23.95-.92,2.07-1.63,3.35-2.14,1.28-.5,2.68-.76,4.2-.76s2.96.26,4.26.78c1.3.52,2.41,1.3,3.32,2.32l-1.85,1.8c-.76-.8-1.61-1.39-2.56-1.78-.95-.39-1.97-.58-3.05-.58s-2.16.19-3.12.57c-.96.38-1.79.91-2.49,1.6-.7.68-1.25,1.5-1.64,2.44-.39.94-.58,1.96-.58,3.06s.19,2.12.58,3.06c.39.94.93,1.75,1.64,2.44.7.68,1.53,1.22,2.49,1.6.96.38,2,.57,3.12.57s2.1-.19,3.05-.58c.95-.39,1.8-.99,2.56-1.81l1.85,1.79c-.91,1.03-2.02,1.8-3.32,2.34-1.3.53-2.73.8-4.29.8Z"/><path class="cls-1" d="M128.5,149.84c-1.52,0-2.93-.26-4.23-.77-1.3-.51-2.43-1.23-3.38-2.15-.95-.92-1.69-2-2.22-3.23-.53-1.23-.8-2.58-.8-4.04s.27-2.81.8-4.04c.53-1.24,1.27-2.31,2.22-3.23.95-.92,2.07-1.64,3.36-2.15,1.29-.51,2.71-.77,4.24-.77s2.92.25,4.2.76c1.28.5,2.4,1.22,3.36,2.14.96.92,1.7,2,2.22,3.23.52,1.24.78,2.59.78,4.07s-.26,2.84-.78,4.07c-.52,1.23-1.26,2.31-2.22,3.23-.96.92-2.08,1.63-3.36,2.14-1.28.5-2.68.76-4.2.76ZM128.5,147.31c1.1,0,2.12-.19,3.06-.57.94-.38,1.76-.92,2.45-1.61.69-.69,1.23-1.5,1.62-2.44.39-.93.58-1.95.58-3.05s-.19-2.12-.58-3.05-.93-1.74-1.62-2.44c-.69-.69-1.51-1.23-2.45-1.61-.94-.38-1.96-.57-3.06-.57s-2.15.19-3.09.57c-.94.38-1.76.92-2.46,1.61-.7.69-1.25,1.5-1.64,2.44-.39.93-.58,1.95-.58,3.05s.19,2.12.58,3.05c.39.93.93,1.74,1.64,2.44.7.69,1.52,1.23,2.46,1.61.94.38,1.97.57,3.09.57Z"/><path class="cls-1" d="M154.93,149.84c-1.52,0-2.97-.23-4.36-.7-1.39-.46-2.48-1.07-3.28-1.81l1.05-2.22c.76.66,1.73,1.22,2.91,1.65,1.18.44,2.4.66,3.67.66,1.16,0,2.1-.13,2.82-.4.72-.27,1.25-.63,1.6-1.1.34-.47.51-.99.51-1.58,0-.68-.22-1.23-.67-1.65-.45-.42-1.03-.75-1.74-1.01-.71-.26-1.5-.48-2.35-.67-.85-.19-1.71-.41-2.58-.67-.87-.26-1.65-.58-2.36-.98-.71-.4-1.29-.93-1.72-1.61-.44-.67-.66-1.54-.66-2.61s.27-1.97.81-2.83c.54-.86,1.38-1.56,2.51-2.08,1.13-.52,2.57-.78,4.31-.78,1.16,0,2.31.15,3.45.46,1.14.3,2.13.74,2.96,1.31l-.94,2.28c-.86-.57-1.76-.98-2.71-1.24-.95-.26-1.87-.38-2.76-.38-1.12,0-2.04.14-2.76.43-.72.29-1.25.66-1.58,1.14-.33.48-.5,1.01-.5,1.6,0,.7.22,1.26.67,1.68.45.42,1.03.75,1.74,1,.71.25,1.5.47,2.35.67.85.2,1.71.42,2.58.67.87.25,1.65.57,2.36.97.71.4,1.29.93,1.72,1.6s.66,1.52.66,2.56-.28,1.94-.83,2.81c-.55.86-1.4,1.56-2.55,2.08-1.15.52-2.6.78-4.34.78Z"/><path class="cls-1" d="M176.18,149.62v-17.46h-6.84v-2.48h16.49v2.48h-6.83v17.46h-2.82Z"/><path class="cls-1" d="M297.88,149.62v-19.94h2.34l8.94,15.07h-1.25l8.83-15.07h2.34l.03,19.94h-2.73l-.03-15.64h.66l-7.86,13.22h-1.31l-7.92-13.22h.71v15.64h-2.73Z"/><path class="cls-1" d="M327.76,149.62l9.03-19.94h2.82l9.06,19.94h-2.99l-8.06-18.34h1.14l-8.06,18.34h-2.93ZM331.6,144.63l.77-2.28h11.22l.83,2.28h-12.82Z"/><path class="cls-1" d="M357.32,149.62v-19.94h8.4c2.13,0,4,.42,5.63,1.25,1.62.84,2.89,2,3.79,3.5.9,1.5,1.35,3.24,1.35,5.21s-.45,3.71-1.35,5.21c-.9,1.5-2.17,2.67-3.79,3.5-1.62.84-3.5,1.25-5.63,1.25h-8.4ZM360.17,147.14h5.38c1.65,0,3.08-.31,4.29-.94,1.21-.63,2.14-1.5,2.81-2.63.66-1.13,1-2.44,1-3.92s-.33-2.81-1-3.93c-.66-1.12-1.6-1.99-2.81-2.62-1.21-.63-2.63-.94-4.29-.94h-5.38v14.98Z"/><path class="cls-1" d="M386.54,149.62v-19.94h2.85v19.94h-2.85Z"/><path class="cls-1" d="M295.23,171.29l-.07-.13-.1-.11c-.52-.61-1.54-2.21-3.45-6.46l-1.26-2.61c-4.67-9.01-7.73-15.06-8.85-17.5-.5-1.28-1.56-3.56-3.12-6.76-3.09-6.58-4.98-10.89-5.65-12.82-1.59-4.57-3.11-8.34-4.49-11.18-4.62-9.97-5.32-11.85-5.4-12.19-.07-.29-.22-.79-.43-1.5-.28-.92-.72-1.6-1.33-2.05-.67-.61-1.33-.59-1.66-.52-1.08.22-1.53,1.37-1.69,1.78-.84,2.32-1.55,4.58-2.09,6.67l-2.58,8.27c-1.3,4.18-2.63,8.75-3.93,13.56-.43,1.43-.74,2.6-.95,3.57-.62,2.2-1.19,4.28-1.74,6.35-1.93,5.44-3.23,9.98-3.86,13.48-.28,1.56-.97,4.28-2.05,8.13-.68-2.23-1.92-6.06-3.76-11.61l-.05-.13c-.38-.8-1.32-3.15-3.69-9.85l-1.85-4.83-1.97-5.7c-2.79-7.82-3.3-9.54-3.35-9.86l-.86-3.07c-1.4-5.31-2.36-8.56-2.93-9.95-.15-.45-.41-1.13-.73-1.97-.36-.93-.73-1.75-1.11-2.43-.57-1.03-1.28-1.56-2.09-1.56-1.32,0-2.41.63-3.15,1.81-.58.94-1.13,2.3-1.63,4.03l-.02.11c-.27,1.39-.82,3.29-1.66,5.66-.77,2.19-1.3,3.71-1.48,4.25-.51,1.11-1.12,2.86-1.8,5.19l-.64,2.21-.71,2.86c-.88,3.05-1.59,5.68-2.09,7.82-.13.59-.54,2.02-1.23,4.3l-1.45,5.48-.02.07c-.33,1.66-1.16,4.65-2.46,8.9l-.83,2.9c-.97,3.39-1.63,5.96-1.99,7.64v.06c-.13.82-.36,1.7-.68,2.7l-.73,2.17-.95,3.87-.29.88c-.07.23-.13.44-.15.63-.06.19-.1.38-.11.6-.12.44-.3,1.33.22,2.05.19.27.65.7,1.5.7h2.06c.41,0,.7-.02.9-.08.33-.08.93-.34,1.21-1.28,0-.02,0-.03.01-.04l.13-.13.07-.34c.33-1.45.55-2.17.68-2.52l.21-.73c.1-.36.22-.78.34-1.25.24-.87.35-1.09.35-1.1l.06-.1c.55-1.02.9-2.25,1.06-3.77.48-1.85.82-3.38,1.03-4.52,1-4.84,1.23-5.67,1.28-5.79l.68-3.17c.02-.08.04-.16.07-.21h6.2c6.46,0,7.47-.08,7.75-.11l4.47-.21c.47-.04,1.39-.1,3.09-.1.03,0,.05,0,.08,0,.08.13.22.39.44.87l.9,2.9c.5,1.71,1.08,3.27,1.71,4.61.33.74.71,1.82,1.14,3.17.44,1.45.76,2.62.94,3.55.22,1.44.65,3.07,1.29,4.84.45,1.65.85,2.95,1.14,3.72.22.7.54,1.17,1,1.45.36.22.8.32,1.3.32h5.79c.39,0,.71-.04.98-.1.66-.04,1.22-.34,1.59-.87.19-.25.44-.72.75-1.98l.83-3.02,1.14-4.45.02-.07c.2-1.06.45-2.21.76-3.51.29-1.18.56-2.32.77-3.36l.62-2.54c.08-.26.16-.59.23-.99.02-.15.07-.28.11-.4l5.32.1c1.68,0,2.78-.03,3.4-.1,1.89-.13,3.85-.21,5.81-.21,3.69,0,4.84-.11,5.36-.22.8-.07,1.56-.13,2.26-.2.7-.07,1.27-.1,1.69-.1.12,0,.18.02.18.01.04.05.24.34.53,1.23l.07.15c.24.49.63,1.3,1.33,2.81.73,1.57,1.05,2.44,1.19,2.92.48,1.45,1.18,3.39,2.14,5.94.95,2.55,1.57,4.08,1.94,4.84.14.34.3.75.51,1.22.22.52.49,1.05.78,1.56.5.89,1.13,1.34,1.88,1.34h7.45c2.67,0,3.07-1.27,3.07-2.03,0-.36-.11-.82-.64-1.88ZM219.08,140.52c-1.55,0-2.74.07-3.64.21l-5.88.21c-.15,0-.47.02-.97.05-.21.02-.41,0-.63-.04.02-.04.03-.1.05-.15.44-1.11,1.01-2.99,1.74-5.75.73-2.77,1.29-4.97,1.7-6.76.61-1.89,1.29-4.21,2.07-7.09.79-2.89,1.4-5.17,1.86-6.98l.6-2.21c.21.66.47,1.5.77,2.58.16.92.64,2.78,1.42,5.54.79,2.84,1.55,5.33,2.25,7.44.6,1.6,1.22,3.55,1.83,5.81.86,2.93,1.48,4.86,1.91,5.92.25.62.41,1.05.5,1.33l-5.59-.1ZM255.1,137.01c.04-.18.09-.41.17-.68.21-.57.57-1.57,1.08-3.04.51-1.47.92-2.77,1.22-3.86.53-2,1.4-4.96,2.67-9.06l.02-.06c.09-.38.21-.87.36-1.46.13.27.36.84.79,2.08.38,1.1.92,2.51,1.62,4.17.48,1.46,1.34,3.59,2.6,6.52,1.05,2.4,1.74,3.93,2.16,4.79-.27.02-.56.05-.9.09h-.07c-.67.14-2.5.25-5.45.35-2.74.1-4.85.15-6.28.16Z"/></svg>