<?xml version="1.0" standalone="no"?>
<!DOCTYPE svg PUBLIC "-//W3C//DTD SVG 20010904//EN"
 "http://www.w3.org/TR/2001/REC-SVG-20010904/DTD/svg10.dtd">
<svg version="1.0" xmlns="http://www.w3.org/2000/svg"
 width="1024.000000pt" height="1024.000000pt" viewBox="0 0 1024.000000 1024.000000"
 preserveAspectRatio="xMidYMid meet">
<metadata>
Created by potrace 1.14, written by Peter Selinger 2001-2017
</metadata>
<g transform="translate(0.000000,1024.000000) scale(0.100000,-0.100000)"
fill="#000000" stroke="none">
<path d="M6561 9023 c-8 -14 -11 -15 -11 -3 0 11 -4 10 -16 -5 -8 -11 -18 -20
-22 -20 -4 0 -6 -3 -4 -7 1 -5 -2 -7 -7 -5 -11 3 -59 -51 -67 -75 -3 -10 -10
-18 -16 -18 -5 0 -8 -7 -5 -15 4 -8 2 -17 -4 -21 -6 -3 -8 -13 -5 -21 4 -9 2
-11 -6 -7 -8 5 -9 2 -5 -9 4 -12 1 -17 -11 -17 -13 0 -14 -2 -3 -9 10 -6 10
-10 1 -16 -6 -4 -9 -13 -6 -21 3 -8 0 -14 -6 -14 -6 0 -9 -3 -5 -6 3 -3 -3
-22 -14 -41 -11 -19 -14 -31 -7 -27 10 6 11 5 1 -8 -7 -8 -10 -18 -6 -21 3 -4
1 -7 -6 -7 -7 0 -11 -7 -8 -15 4 -8 2 -17 -4 -20 -5 -4 -7 -11 -4 -16 4 -5 2
-9 -3 -9 -6 0 -13 -7 -16 -16 -3 -8 -2 -12 4 -9 6 3 7 -1 4 -9 -3 -9 -9 -16
-13 -16 -4 0 -7 -8 -8 -17 -2 -26 -7 -46 -16 -60 -5 -7 -6 -13 -3 -13 3 0 -1
-18 -9 -40 -8 -22 -12 -40 -9 -40 3 0 -2 -7 -11 -16 -11 -12 -13 -20 -5 -29 7
-9 6 -16 -4 -24 -8 -7 -13 -21 -11 -32 2 -10 -1 -19 -6 -19 -6 0 -8 -9 -4 -19
3 -11 1 -22 -5 -26 -6 -3 -8 -11 -5 -16 4 -5 2 -9 -3 -9 -8 0 -10 -6 -14 -50
-1 -11 -6 -20 -11 -20 -5 0 -6 -7 -3 -15 3 -9 -1 -18 -10 -22 -13 -5 -13 -7
-2 -14 10 -7 11 -9 0 -9 -7 0 -11 -4 -8 -8 3 -5 -2 -21 -9 -36 -8 -16 -13 -32
-10 -36 3 -5 0 -12 -6 -15 -5 -4 -8 -13 -5 -21 3 -8 1 -14 -5 -14 -6 0 -8 -4
-4 -9 3 -5 0 -13 -6 -16 -5 -4 -8 -13 -5 -21 3 -7 -3 -18 -12 -23 -9 -6 -12
-11 -5 -11 6 0 9 -9 6 -20 -3 -11 -9 -17 -14 -14 -5 3 -9 0 -9 -5 0 -6 6 -11
13 -11 7 0 5 -5 -5 -11 -10 -5 -15 -16 -12 -24 4 -8 2 -15 -3 -15 -5 0 -10 -9
-11 -20 -1 -11 -3 -29 -4 -40 -1 -11 -5 -20 -9 -20 -4 0 -6 -11 -6 -25 0 -14
-9 -33 -19 -41 -11 -9 -13 -12 -5 -8 11 5 13 3 8 -10 -4 -10 -7 -20 -7 -22 0
-3 -4 -3 -9 0 -5 4 -7 -2 -4 -13 3 -10 0 -22 -6 -25 -5 -4 -7 -14 -4 -23 5
-12 3 -14 -7 -8 -9 5 -11 4 -6 -4 4 -6 2 -19 -6 -28 -9 -12 -9 -15 -1 -9 9 5
11 2 7 -8 -3 -9 -9 -16 -13 -16 -4 0 -8 -9 -9 -20 -1 -11 -3 -29 -4 -40 -1
-11 -6 -20 -11 -20 -4 0 -5 -4 -2 -10 3 -5 2 -10 -4 -10 -6 0 -8 -7 -5 -15 4
-8 2 -15 -4 -15 -5 0 -9 -8 -9 -17 0 -37 -3 -44 -15 -37 -9 5 -9 2 1 -9 10
-13 10 -17 1 -17 -7 0 -10 -7 -6 -15 3 -8 1 -15 -4 -15 -6 0 -10 -12 -10 -26
0 -14 -4 -23 -8 -20 -5 3 -6 -9 -4 -26 4 -24 2 -29 -8 -23 -10 6 -12 4 -7 -7
3 -9 0 -24 -7 -34 -7 -9 -11 -26 -8 -37 4 -15 2 -18 -9 -12 -11 7 -12 6 -2 -7
11 -12 9 -18 -6 -32 -11 -10 -17 -24 -14 -32 3 -8 -1 -22 -8 -31 -12 -14 -12
-16 1 -8 9 5 8 0 -4 -13 -14 -17 -16 -22 -5 -22 8 0 10 -3 4 -8 -10 -7 -17
-27 -18 -49 0 -7 -5 -13 -10 -13 -5 0 -7 -9 -4 -20 3 -13 1 -18 -6 -13 -6 4
-8 0 -4 -9 3 -9 -2 -26 -10 -39 -9 -12 -11 -19 -5 -15 19 11 14 -5 -5 -20 -13
-10 -14 -13 -4 -14 11 0 11 -3 1 -15 -6 -8 -9 -18 -6 -24 3 -5 -1 -12 -10 -15
-10 -4 -13 -13 -9 -27 6 -16 4 -20 -6 -13 -12 6 -12 5 0 -9 10 -13 10 -17 1
-17 -7 0 -10 -7 -6 -15 3 -8 -1 -21 -9 -29 -11 -11 -12 -16 -2 -19 9 -4 9 -6
0 -6 -7 -1 -13 -10 -13 -20 0 -11 -5 -23 -10 -26 -8 -5 -8 -11 0 -20 8 -10 8
-16 -2 -22 -7 -4 -14 -17 -16 -28 -4 -28 -7 -38 -13 -50 -4 -5 -5 -18 -4 -27
2 -10 -1 -18 -7 -18 -6 0 -8 -7 -4 -15 3 -8 1 -15 -5 -15 -6 0 -8 -4 -4 -9 3
-5 1 -12 -5 -16 -5 -3 -10 -12 -10 -18 0 -7 4 -6 10 3 5 8 10 10 10 4 0 -6 -6
-17 -14 -23 -8 -7 -15 -20 -15 -29 -1 -38 -5 -52 -12 -52 -5 0 -6 -7 -3 -15 4
-8 1 -15 -5 -15 -6 0 -11 -5 -11 -11 0 -5 5 -7 10 -4 6 3 10 2 10 -4 0 -5 -4
-13 -10 -16 -5 -3 -10 -15 -10 -26 0 -10 -4 -19 -9 -19 -4 0 -8 -8 -8 -17 0
-34 -3 -44 -11 -39 -4 2 -9 -4 -9 -15 -1 -11 2 -17 7 -14 4 3 0 -12 -10 -32
-10 -20 -15 -44 -12 -52 4 -10 1 -12 -8 -6 -9 5 -11 4 -6 -4 4 -6 2 -19 -6
-28 -9 -12 -9 -15 0 -9 6 4 12 3 12 -3 0 -5 -8 -15 -17 -20 -14 -8 -14 -10 -4
-11 11 0 12 -3 4 -11 -6 -6 -9 -18 -6 -27 4 -10 2 -13 -5 -8 -8 5 -10 2 -6 -9
4 -8 -1 -26 -9 -39 -12 -17 -13 -26 -4 -35 8 -8 8 -11 -2 -11 -7 0 -10 -4 -6
-9 3 -5 1 -12 -4 -16 -6 -3 -7 -13 -4 -22 5 -12 3 -14 -7 -8 -9 5 -11 4 -6 -4
4 -6 2 -19 -6 -28 -11 -14 -11 -16 2 -8 13 8 13 6 1 -8 -7 -9 -11 -24 -7 -32
3 -10 2 -13 -5 -10 -6 4 -10 1 -8 -6 3 -25 -1 -40 -9 -35 -4 3 -7 -8 -6 -25 1
-16 -2 -31 -7 -34 -4 -3 -5 -13 -2 -22 5 -12 3 -14 -6 -8 -10 5 -11 2 -7 -13
4 -11 2 -23 -3 -26 -6 -4 -7 -14 -4 -23 4 -11 3 -14 -5 -9 -7 4 -10 2 -7 -6 3
-7 -1 -31 -9 -53 -8 -21 -13 -49 -11 -62 1 -12 -1 -21 -4 -19 -4 3 -11 -7 -18
-20 -6 -13 -7 -24 -2 -24 5 0 3 -13 -5 -29 -9 -16 -12 -32 -8 -36 4 -3 -2 -13
-12 -21 -13 -9 -15 -14 -6 -14 9 0 8 -5 -6 -16 -10 -8 -12 -12 -4 -8 12 7 13
5 3 -8 -7 -8 -10 -18 -6 -21 3 -4 0 -7 -7 -7 -7 0 -10 -3 -7 -7 4 -3 2 -12 -4
-20 -6 -7 -9 -13 -5 -13 4 0 0 -13 -9 -30 -10 -19 -11 -30 -5 -30 6 0 4 -7 -4
-16 -9 -8 -16 -23 -16 -32 0 -10 -8 -28 -17 -41 -9 -14 -11 -21 -5 -17 6 3 4
-7 -4 -23 -8 -16 -16 -43 -17 -59 -1 -17 -5 -28 -9 -25 -7 4 -9 -2 -12 -39 -1
-7 -8 -19 -16 -26 -13 -12 -13 -13 0 -6 13 7 13 5 2 -9 -8 -9 -11 -21 -7 -27
3 -5 -1 -13 -10 -16 -9 -4 -12 -9 -7 -13 6 -4 4 -19 -7 -41 -9 -19 -18 -48
-19 -64 -1 -17 -5 -32 -10 -35 -4 -3 -9 -15 -10 -26 -2 -11 -8 -22 -13 -23 -6
-2 -4 -11 3 -19 10 -12 9 -17 -5 -28 -9 -6 -14 -15 -10 -19 4 -4 1 -11 -7 -16
-12 -8 -12 -10 -1 -10 10 0 11 -3 2 -13 -6 -8 -8 -17 -4 -20 3 -4 1 -7 -5 -7
-7 0 -12 -5 -12 -11 0 -5 5 -7 11 -3 6 3 3 -5 -6 -19 -9 -15 -14 -31 -10 -37
3 -5 2 -10 -4 -10 -5 0 -8 -9 -6 -20 2 -11 1 -20 -3 -20 -4 0 -9 -12 -10 -26
-1 -14 -5 -31 -9 -37 -4 -7 -6 -20 -5 -29 2 -10 -3 -18 -10 -18 -9 0 -9 -3 2
-10 11 -7 11 -10 2 -10 -7 0 -11 -4 -7 -9 3 -5 1 -12 -3 -15 -5 -3 -8 -17 -7
-31 2 -14 0 -25 -5 -25 -4 0 -6 -10 -2 -22 3 -12 1 -19 -5 -15 -12 7 -11 -23
2 -42 4 -8 4 -12 -1 -9 -5 3 -16 -1 -24 -10 -13 -14 -12 -15 3 -9 9 3 17 2 17
-3 0 -6 -4 -10 -9 -10 -6 0 -10 -8 -10 -17 -1 -40 -5 -53 -14 -53 -5 0 -4 -7
3 -15 8 -9 8 -15 2 -15 -6 0 -10 -8 -10 -18 1 -25 -5 -46 -17 -54 -6 -5 -5 -8
3 -8 6 0 12 -5 12 -11 0 -5 -5 -7 -12 -3 -8 5 -9 0 -6 -14 4 -12 3 -22 -1 -22
-4 0 -8 -8 -9 -17 -1 -10 -3 -27 -4 -38 -2 -11 -10 -26 -18 -33 -8 -8 -9 -11
-2 -7 6 3 12 1 12 -4 0 -6 -4 -11 -10 -11 -5 0 -7 -7 -4 -15 4 -8 2 -15 -3
-15 -5 0 -9 -15 -8 -34 0 -19 -4 -32 -9 -29 -5 3 -7 -6 -4 -21 3 -14 1 -29 -3
-32 -5 -3 -14 -14 -20 -26 -9 -16 -8 -19 3 -12 11 6 11 5 -1 -9 -7 -9 -10 -17
-6 -17 4 0 2 -6 -4 -13 -6 -8 -7 -17 -3 -21 4 -4 -2 -14 -12 -22 -11 -8 -14
-14 -8 -14 7 0 12 -7 12 -16 0 -8 -4 -13 -9 -9 -6 3 -8 -4 -6 -15 2 -11 0 -20
-5 -20 -5 0 -7 -9 -5 -20 2 -11 0 -20 -5 -20 -5 0 -7 -9 -5 -20 2 -11 -1 -20
-6 -20 -5 0 -9 -6 -8 -12 3 -24 -3 -53 -8 -40 -2 6 -8 10 -12 8 -4 -3 -8 7 -9
21 -1 14 -8 39 -16 55 -8 15 -10 26 -4 22 5 -3 3 7 -6 24 -8 16 -12 32 -9 36
4 3 1 6 -6 6 -8 0 -10 7 -6 20 4 12 2 20 -5 20 -6 0 -8 5 -5 10 3 6 2 10 -3
10 -8 0 -12 14 -13 53 0 10 -5 15 -11 11 -7 -5 -9 0 -6 14 4 12 2 25 -3 28 -5
3 -7 10 -4 15 4 5 1 9 -5 9 -6 0 -9 3 -7 8 3 4 0 18 -6 32 -10 25 -13 35 -15
58 -1 8 -7 10 -14 6 -9 -5 -9 -2 1 9 9 12 10 17 2 17 -7 0 -9 4 -6 10 3 5 2
10 -4 10 -6 0 -7 7 -4 17 5 11 3 14 -6 8 -10 -5 -11 -2 -7 13 4 11 2 23 -4 27
-6 3 -8 10 -5 15 7 12 -21 61 -30 52 -4 -4 -2 3 4 16 10 20 8 25 -9 24 -3 0
-6 11 -7 26 -1 33 -13 72 -22 72 -3 0 -7 14 -8 30 -1 17 -12 45 -25 62 -12 17
-17 28 -10 24 17 -10 15 6 -5 33 -12 18 -13 22 -2 16 11 -7 12 -6 2 7 -7 8 -9
19 -5 23 4 5 2 5 -4 2 -11 -6 -22 26 -25 73 -1 8 -8 22 -16 31 -7 9 -13 20
-12 25 1 8 1 12 -6 32 -2 4 -6 17 -10 30 -4 12 -12 22 -19 22 -6 0 -4 5 4 10
8 5 10 10 3 10 -10 0 -38 56 -34 73 0 4 -4 7 -10 7 -8 0 -7 6 2 17 10 11 10
14 2 9 -8 -4 -13 -1 -13 8 0 9 -5 16 -11 16 -5 0 -7 5 -4 10 3 6 -4 24 -16 42
-13 17 -18 28 -11 24 7 -4 12 -2 12 3 0 6 -5 11 -11 11 -5 0 -7 5 -4 10 3 6 1
10 -6 10 -7 0 -9 3 -6 7 4 3 0 17 -9 31 -9 13 -12 22 -6 18 6 -3 5 4 -1 19 -7
14 -16 25 -20 25 -5 0 -5 5 -2 10 3 6 0 10 -7 10 -9 0 -9 3 2 10 11 7 11 10 2
10 -7 0 -10 5 -7 10 3 6 2 10 -4 10 -5 0 -8 8 -7 18 2 9 -1 20 -6 23 -6 4 -11
18 -11 32 -1 14 -5 23 -9 21 -4 -2 -10 1 -14 7 -3 6 -1 15 6 19 8 5 7 9 -5 14
-10 3 -15 12 -11 21 3 8 1 15 -4 15 -6 0 -10 8 -10 18 0 10 -3 22 -7 26 -4 3
-8 17 -10 29 -2 12 -8 23 -13 25 -5 2 -7 9 -4 17 3 7 0 16 -5 20 -6 3 -9 11
-6 16 4 5 1 9 -5 9 -6 0 -8 5 -5 10 4 6 1 17 -5 25 -6 8 -9 18 -6 24 3 5 2 11
-3 13 -5 1 -11 10 -13 18 -2 8 -7 18 -13 22 -6 5 -4 8 5 8 10 0 8 5 -7 15 -14
10 -19 22 -16 35 3 11 -1 27 -8 36 -7 9 -15 28 -17 43 -2 14 -7 30 -13 36 -5
5 -9 17 -9 27 0 10 -5 18 -11 18 -6 0 -8 7 -5 16 4 9 2 13 -5 8 -8 -4 -9 1 -4
15 4 12 2 21 -4 21 -6 0 -11 7 -11 15 0 8 -9 30 -19 49 -15 26 -17 37 -8 46 9
10 9 11 0 6 -8 -4 -13 -1 -14 8 -3 35 -5 41 -17 39 -7 -2 -9 4 -5 14 4 9 2 14
-3 11 -5 -4 -10 8 -11 25 -1 17 -7 35 -13 41 -5 5 -10 18 -10 28 0 10 -5 18
-11 18 -5 0 -7 5 -4 10 4 6 1 17 -5 25 -7 8 -9 15 -5 15 5 0 0 10 -11 22 -10
12 -13 18 -6 14 6 -4 12 -2 12 3 0 6 -4 11 -10 11 -5 0 -9 3 -8 8 1 8 -9 39
-23 66 -8 14 -7 16 2 10 7 -4 3 7 -10 24 -12 18 -18 32 -12 32 6 0 8 7 5 15
-4 8 -10 13 -15 10 -4 -3 -6 4 -4 15 2 11 -1 20 -6 20 -6 0 -8 4 -4 9 3 5 -2
17 -11 25 -10 10 -11 16 -3 16 9 0 9 3 -1 15 -6 8 -9 18 -6 24 3 5 -1 12 -10
15 -9 4 -14 9 -11 12 3 3 -1 17 -8 31 -8 15 -12 30 -10 34 3 4 -2 19 -10 35
-7 15 -12 31 -10 35 3 4 -3 10 -12 13 -12 5 -13 10 -5 18 8 8 7 15 -6 25 -9 8
-11 12 -5 8 9 -4 11 -1 7 9 -3 9 -10 16 -15 16 -5 0 -9 8 -9 19 0 10 -7 35
-15 55 -8 20 -12 36 -8 36 5 0 2 4 -6 9 -7 5 -15 19 -16 32 -1 13 -3 30 -4 37
0 7 -6 10 -13 6 -7 -5 -8 -3 -4 5 5 7 0 21 -11 33 -10 12 -12 18 -5 14 17 -10
15 -2 -8 39 -11 20 -16 34 -10 30 6 -3 7 0 4 9 -3 9 -11 16 -16 16 -6 0 -8 7
-4 15 3 8 0 20 -7 27 -7 7 -13 26 -15 43 -2 16 -9 33 -15 37 -7 4 -8 8 -4 8 4
0 3 9 -3 21 -6 11 -13 30 -15 41 -3 12 -10 25 -16 29 -8 5 -8 8 1 14 8 5 7 12
-5 25 -10 11 -15 25 -12 32 2 7 -4 24 -13 38 -19 27 -20 30 -20 61 0 12 -4 17
-11 13 -8 -4 -9 0 -4 15 3 12 2 21 -3 21 -6 0 -9 11 -7 25 1 14 -1 25 -4 25
-3 0 -12 9 -19 21 -8 12 -9 18 -3 14 16 -9 13 7 -6 34 -12 18 -13 22 -2 16 11
-6 11 -5 2 5 -6 7 -9 19 -6 26 3 8 0 14 -7 14 -7 0 -10 6 -7 14 3 8 -1 17 -9
20 -12 4 -12 10 -4 26 8 15 8 20 -1 20 -6 0 -9 9 -6 20 3 11 1 18 -3 15 -5 -3
-11 -1 -15 5 -3 5 0 10 7 10 9 0 10 3 2 8 -6 4 -10 15 -8 25 1 9 -2 17 -8 17
-6 0 -8 7 -4 15 3 8 1 15 -4 15 -5 0 -7 7 -4 15 4 8 2 15 -4 15 -6 0 -8 9 -5
20 3 11 0 20 -6 20 -6 0 -10 3 -10 8 4 26 -3 62 -11 57 -5 -3 -8 7 -5 25 2 17
-1 30 -7 30 -6 0 -8 3 -5 7 4 3 1 13 -6 21 -10 13 -9 14 3 7 11 -6 10 -3 -2
12 -20 22 -24 38 -7 27 7 -4 6 3 -2 17 -7 13 -12 30 -11 37 2 6 -1 12 -7 12
-5 0 -7 9 -4 20 3 12 0 20 -7 20 -7 0 -9 8 -5 20 3 11 2 20 -4 20 -5 0 -8 9
-6 20 2 11 0 20 -6 20 -5 0 -9 14 -9 30 0 17 -4 30 -9 30 -6 0 -10 8 -10 18 0
22 -5 44 -14 58 -3 6 -8 25 -9 43 -1 17 -6 31 -11 31 -4 0 -6 4 -3 8 3 5 -1
19 -8 33 -7 13 -11 30 -8 37 2 6 -1 12 -7 12 -6 0 -11 5 -11 11 0 5 6 7 13 3
6 -4 4 1 -5 12 -12 14 -15 24 -8 32 6 7 7 10 3 7 -9 -7 -35 54 -28 65 3 5 1
11 -5 15 -6 4 -8 11 -5 16 4 5 1 9 -4 9 -6 0 -10 3 -10 8 4 21 -2 32 -13 26
-10 -5 -10 -4 -2 5 9 9 9 19 0 37 -6 13 -14 24 -18 24 -4 0 -5 6 -2 14 3 7 -2
20 -10 29 -12 12 -13 17 -3 20 9 4 9 6 -1 6 -7 1 -10 6 -7 11 3 6 1 10 -6 10
-7 0 -9 3 -6 7 4 3 1 13 -6 21 -10 13 -9 14 3 7 10 -5 9 -1 -3 13 -11 11 -16
26 -12 31 3 6 1 11 -4 11 -6 0 -10 3 -9 8 1 4 -3 17 -10 28 -6 12 -8 24 -5 28
3 3 1 6 -6 6 -7 0 -10 3 -8 8 3 4 -3 25 -14 46 -10 21 -16 43 -13 47 3 5 -2
12 -10 15 -9 3 -16 12 -16 18 0 18 -24 66 -33 66 -5 0 -6 4 -2 9 3 5 -2 16
-10 24 -8 9 -15 20 -15 26 0 16 -100 112 -110 106 -6 -4 -10 -1 -10 5 0 6 -5
8 -10 5 -5 -3 -10 -1 -10 5 0 6 -4 8 -10 5 -6 -3 -10 0 -10 7 0 8 -3 9 -8 3
-10 -14 -32 -17 -32 -4 0 7 -4 8 -12 2 -7 -5 -24 -8 -38 -7 -14 1 -31 -3 -38
-8 -6 -6 -12 -7 -12 -3 0 4 -8 1 -17 -6 -15 -12 -16 -12 -8 1 6 11 3 10 -12
-2 -11 -10 -27 -18 -37 -18 -9 0 -19 -7 -22 -15 -4 -8 -12 -15 -20 -15 -8 0
-14 -7 -14 -15 0 -8 -3 -14 -7 -14 -23 4 -32 -3 -26 -18 4 -11 3 -14 -5 -9 -7
4 -12 3 -12 -2 0 -4 -9 -18 -21 -30 -11 -12 -17 -27 -14 -32 3 -6 -1 -10 -9
-10 -10 0 -13 -6 -9 -17 4 -11 3 -14 -5 -9 -8 5 -12 0 -12 -13 0 -12 -5 -21
-11 -21 -5 0 -8 -4 -4 -9 3 -5 1 -12 -5 -16 -6 -4 -8 -11 -5 -16 4 -5 1 -9 -4
-9 -6 0 -11 -9 -11 -21 0 -11 -5 -17 -10 -14 -6 4 -10 3 -9 -2 5 -17 -14 -83
-23 -83 -5 0 -7 -4 -3 -9 3 -5 1 -12 -4 -15 -5 -4 -8 -17 -7 -31 2 -13 -1 -22
-5 -19 -8 5 -13 -13 -12 -43 1 -7 -3 -13 -9 -13 -5 0 -6 -4 -3 -10 3 -5 2 -10
-3 -10 -5 0 -8 -20 -8 -44 1 -24 -2 -42 -6 -39 -5 2 -9 -3 -9 -11 -1 -16 -4
-28 -9 -43 -4 -15 -7 -28 -8 -46 -1 -10 -7 -15 -13 -11 -8 5 -8 1 0 -14 9 -17
8 -23 -6 -31 -14 -8 -15 -10 -3 -11 11 0 12 -3 3 -8 -6 -4 -13 -20 -15 -35 -3
-16 -11 -33 -19 -38 -8 -5 -9 -9 -3 -9 8 0 8 -10 0 -35 -6 -19 -15 -35 -19
-35 -5 0 -6 -4 -2 -9 3 -5 1 -12 -4 -16 -6 -3 -8 -12 -5 -19 3 -8 0 -17 -5
-21 -6 -3 -9 -11 -6 -16 4 -5 1 -9 -5 -9 -6 0 -9 -4 -6 -9 4 -5 0 -12 -6 -14
-10 -4 -9 -6 1 -6 11 -1 11 -4 0 -18 -8 -9 -14 -26 -14 -37 -1 -12 -7 -20 -14
-18 -7 1 -10 -2 -7 -7 4 -5 2 -13 -4 -16 -8 -5 -7 -11 1 -21 9 -11 8 -15 -4
-19 -8 -4 -15 -18 -14 -32 0 -14 -4 -28 -9 -32 -5 -3 -11 -15 -12 -26 -2 -11
-8 -22 -13 -23 -5 -2 -7 -7 -4 -12 3 -4 -2 -24 -10 -43 -8 -19 -11 -37 -8 -41
4 -3 2 -6 -4 -6 -6 0 -14 -15 -18 -32 -4 -18 -9 -36 -10 -40 -1 -5 -3 -13 -4
-19 0 -5 -5 -8 -10 -5 -5 4 -7 -3 -4 -14 4 -13 -1 -27 -13 -36 -11 -9 -12 -12
-4 -8 13 7 13 5 1 -9 -7 -9 -10 -17 -7 -17 4 0 0 -7 -9 -16 -13 -14 -14 -19
-3 -25 9 -6 9 -9 1 -9 -11 0 -29 -37 -25 -52 1 -5 -3 -8 -9 -8 -6 0 -8 -9 -4
-21 5 -15 4 -19 -4 -15 -7 4 -11 -1 -11 -13 0 -11 -5 -23 -10 -26 -6 -4 -8
-11 -4 -16 3 -6 -2 -20 -13 -31 -12 -14 -13 -18 -3 -13 12 7 13 6 3 -7 -7 -8
-10 -18 -6 -21 3 -4 1 -7 -5 -7 -7 0 -12 -16 -12 -39 0 -26 -5 -41 -16 -45
-10 -4 -14 -12 -10 -23 4 -9 1 -20 -6 -25 -11 -6 -10 -8 0 -8 10 0 9 -4 -3
-17 -10 -9 -15 -26 -12 -40 2 -12 -2 -28 -9 -34 -8 -6 -11 -15 -8 -20 3 -5 0
-9 -7 -9 -8 0 -8 -4 -1 -13 7 -8 6 -18 -4 -31 -8 -11 -14 -27 -14 -35 0 -9 -7
-29 -15 -44 -8 -15 -9 -25 -3 -21 6 4 9 1 6 -7 -3 -8 -11 -13 -18 -11 -11 2
-11 0 -1 -11 9 -12 9 -18 -3 -30 -11 -11 -12 -17 -3 -26 7 -7 7 -11 1 -11 -6
0 -11 -7 -12 -15 -1 -8 -3 -22 -4 -30 -1 -8 -4 -15 -8 -15 -4 0 -6 -13 -5 -30
1 -16 -1 -30 -4 -30 -4 0 -7 -10 -8 -22 -1 -11 -8 -25 -15 -29 -9 -6 -9 -9 -1
-9 6 0 9 -9 6 -20 -3 -11 -10 -17 -17 -13 -6 4 -4 -2 4 -12 10 -13 11 -16 2
-11 -10 6 -13 3 -12 -10 4 -32 0 -45 -9 -39 -6 3 -8 -4 -6 -16 3 -13 0 -28 -6
-35 -6 -7 -8 -18 -4 -24 3 -5 2 -10 -3 -10 -9 0 -11 -8 -14 -55 -1 -14 -6 -25
-12 -25 -5 0 -6 -3 -3 -7 4 -3 2 -12 -4 -20 -6 -7 -8 -13 -3 -13 5 0 2 -5 -6
-10 -10 -6 -11 -10 -2 -10 6 0 12 -5 12 -12 0 -6 -3 -8 -7 -4 -4 3 -12 -13
-18 -36 -6 -24 -15 -54 -19 -67 -6 -18 -5 -22 5 -15 7 4 3 -6 -9 -23 -12 -17
-20 -40 -17 -52 2 -11 1 -21 -3 -21 -8 0 -13 -26 -15 -72 -1 -15 -4 -25 -8
-22 -4 2 -10 -3 -13 -12 -8 -21 -8 -26 2 -20 5 3 9 -1 9 -9 0 -8 -4 -12 -9 -9
-4 3 -8 -2 -8 -11 0 -9 -5 -13 -11 -9 -8 5 -8 1 0 -14 8 -15 8 -23 0 -27 -6
-4 -8 -13 -5 -21 3 -8 0 -14 -6 -14 -7 0 -6 -5 2 -15 10 -12 9 -16 -3 -21 -9
-3 -14 -15 -12 -30 1 -13 -2 -27 -8 -31 -6 -4 -7 -1 -2 8 5 8 4 11 -1 6 -4 -4
-9 -16 -9 -25 -1 -9 -2 -32 -3 -50 -1 -19 -6 -31 -12 -27 -6 3 -7 -1 -4 -9 3
-9 2 -16 -3 -16 -5 0 -10 -9 -11 -20 -4 -44 -6 -50 -14 -50 -5 0 -8 -10 -7
-22 2 -22 -1 -35 -22 -86 -5 -13 -9 -32 -9 -43 0 -11 -4 -18 -8 -15 -5 3 -8
-8 -7 -24 1 -21 -3 -30 -14 -31 -9 0 -11 -3 -5 -5 15 -6 5 -46 -15 -60 -12
-10 -13 -15 -3 -27 9 -10 10 -17 2 -22 -6 -3 -8 -11 -5 -16 4 -5 2 -9 -4 -9
-6 0 -8 -6 -5 -14 3 -8 0 -17 -6 -21 -9 -6 -9 -10 1 -16 10 -6 11 -9 2 -9 -7
0 -13 -9 -13 -19 0 -11 -5 -23 -10 -26 -6 -3 -8 -17 -6 -31 3 -13 1 -24 -4
-24 -5 0 -7 -7 -4 -15 4 -8 1 -15 -6 -15 -6 0 -9 -4 -5 -9 3 -5 1 -13 -5 -16
-8 -5 -7 -11 1 -21 9 -11 8 -15 -6 -20 -13 -5 -14 -9 -3 -16 10 -7 10 -11 -4
-22 -20 -15 -24 -31 -5 -20 6 4 4 -2 -6 -13 -11 -12 -14 -24 -8 -27 6 -4 4
-17 -5 -36 -9 -16 -12 -35 -8 -41 4 -8 3 -9 -5 -5 -8 5 -10 0 -7 -19 3 -16 -2
-37 -11 -51 -12 -18 -12 -24 -2 -24 8 0 5 -6 -7 -16 -10 -8 -13 -13 -6 -9 6 3
12 1 12 -4 0 -6 -5 -11 -11 -11 -5 0 -9 -8 -8 -17 1 -10 -3 -31 -10 -46 -6
-16 -9 -33 -5 -38 3 -5 0 -9 -6 -9 -6 0 -8 -4 -5 -10 3 -5 1 -10 -5 -10 -6 0
-8 -5 -5 -10 4 -6 1 -17 -5 -25 -10 -12 -10 -15 1 -15 7 0 3 -11 -12 -27 -18
-20 -20 -25 -6 -20 16 6 16 5 2 -17 -8 -12 -12 -26 -8 -29 3 -4 1 -7 -5 -7 -6
0 -9 -9 -7 -20 2 -11 -1 -20 -6 -20 -6 0 -8 -9 -4 -20 5 -16 3 -19 -11 -13
-14 5 -15 3 -5 -15 7 -14 8 -22 2 -22 -6 0 -7 -7 -4 -17 4 -11 3 -14 -5 -9 -7
4 -10 2 -7 -6 3 -7 -3 -30 -14 -51 -10 -20 -15 -39 -11 -42 5 -3 3 -16 -3 -29
-7 -13 -15 -22 -19 -20 -5 3 -4 -6 2 -20 7 -18 6 -25 -2 -23 -6 1 -13 -4 -16
-12 -3 -9 0 -11 9 -6 9 6 8 2 -2 -11 -9 -10 -15 -27 -14 -37 2 -9 0 -17 -4
-17 -8 0 -10 -9 -13 -54 -1 -14 -6 -22 -12 -19 -5 4 -7 -1 -3 -10 3 -10 2 -17
-2 -17 -5 0 -8 -11 -7 -25 2 -15 -1 -22 -7 -18 -6 4 -8 0 -4 -10 3 -9 2 -19
-3 -22 -6 -4 -10 -15 -10 -26 0 -14 -4 -18 -12 -13 -10 6 -10 4 0 -8 9 -12 10
-18 2 -23 -6 -4 -9 -13 -6 -20 2 -7 -1 -21 -9 -31 -7 -10 -10 -25 -7 -33 4
-10 1 -12 -8 -6 -9 5 -11 4 -6 -3 4 -7 4 -18 0 -24 -9 -14 -13 -37 -17 -80 -1
-16 -6 -28 -11 -28 -4 0 -5 -7 -2 -16 4 -10 2 -13 -6 -8 -8 5 -9 2 -5 -9 3 -9
2 -19 -4 -22 -5 -4 -7 -10 -4 -15 3 -5 1 -11 -4 -15 -6 -3 -8 -12 -5 -19 3 -8
1 -17 -5 -20 -6 -4 -8 -13 -4 -21 3 -8 0 -15 -6 -15 -6 0 -8 -7 -5 -15 4 -8 1
-15 -6 -15 -6 0 -8 -5 -5 -10 4 -6 1 -18 -7 -27 -11 -14 -11 -16 1 -9 9 6 12
5 9 -5 -3 -8 -11 -13 -18 -11 -10 2 -11 0 -2 -11 9 -10 9 -17 -1 -27 -10 -10
-9 -12 3 -6 12 6 12 5 -1 -6 -9 -7 -14 -19 -12 -25 3 -7 -1 -13 -7 -13 -10 0
-10 -4 0 -15 9 -10 9 -15 1 -15 -15 0 -14 -27 2 -33 7 -3 5 -6 -5 -6 -17 -1
-22 -21 -21 -69 1 -6 -4 -12 -10 -12 -6 0 -7 -3 -4 -7 4 -3 1 -13 -6 -21 -10
-13 -9 -14 3 -7 12 7 13 6 4 -6 -6 -8 -12 -21 -12 -29 -1 -22 -10 -58 -18 -72
-5 -7 -3 -8 7 -3 11 7 12 6 2 -7 -7 -8 -10 -18 -6 -21 3 -4 1 -7 -5 -7 -6 0
-9 -6 -6 -14 3 -8 0 -17 -6 -21 -9 -6 -9 -10 1 -16 12 -8 11 -12 -2 -22 -20
-16 -30 -55 -15 -61 7 -3 7 -5 -1 -5 -7 -1 -13 -10 -13 -20 0 -11 -5 -23 -11
-26 -6 -4 -8 -13 -5 -21 3 -8 1 -14 -5 -14 -6 0 -8 -4 -4 -9 3 -5 0 -13 -6
-16 -5 -4 -8 -13 -5 -21 3 -8 1 -14 -4 -14 -5 0 -7 -7 -4 -15 4 -8 2 -15 -4
-15 -5 0 -13 -7 -16 -16 -4 -10 -2 -13 7 -7 6 4 4 -5 -6 -20 -10 -15 -15 -32
-12 -37 3 -6 2 -10 -4 -10 -5 0 -8 -9 -6 -20 2 -11 -1 -20 -6 -20 -6 0 -7 -4
-4 -10 3 -5 0 -10 -7 -10 -9 0 -9 -3 2 -10 11 -7 11 -10 2 -10 -7 0 -10 -5 -7
-10 3 -5 0 -10 -7 -10 -11 0 -11 -2 0 -9 11 -7 11 -11 -1 -23 -11 -10 -12 -19
-5 -33 8 -13 7 -16 -1 -11 -6 4 -12 0 -12 -8 -2 -25 -4 -30 -13 -45 -6 -9 -5
-12 1 -8 5 3 10 0 10 -8 0 -8 -4 -12 -8 -9 -4 2 -10 0 -14 -6 -3 -5 -2 -10 3
-10 6 0 8 -9 5 -20 -3 -11 -9 -17 -14 -15 -4 3 -6 -4 -4 -16 3 -13 0 -28 -6
-36 -7 -7 -8 -13 -4 -13 4 0 1 -8 -6 -17 -10 -11 -10 -14 -1 -9 6 4 12 3 12
-2 0 -6 -8 -13 -17 -16 -14 -6 -15 -9 -4 -15 10 -7 8 -12 -9 -24 -15 -10 -18
-16 -8 -20 10 -3 10 -7 1 -17 -6 -7 -9 -19 -6 -28 5 -11 3 -13 -7 -7 -9 6 -11
4 -5 -5 4 -7 2 -16 -6 -22 -10 -7 -11 -11 -3 -14 7 -3 10 -14 7 -24 -3 -11 -9
-18 -13 -15 -11 7 -7 -39 5 -47 6 -5 6 -8 -1 -8 -7 0 -11 -20 -11 -54 1 -32 5
-52 11 -49 5 4 7 -1 3 -10 -6 -17 48 -84 65 -79 4 1 8 -5 8 -14 0 -8 5 -12 11
-9 5 4 19 -1 31 -12 20 -18 24 -18 43 -3 6 5 17 5 24 1 8 -5 26 -5 42 -1 15 5
30 6 33 3 7 -8 75 -9 70 -2 -5 9 23 5 32 -4 10 -10 26 -9 20 2 -6 9 37 7 53
-4 6 -3 11 2 11 12 0 15 2 16 10 3 7 -10 12 -12 17 -4 5 6 15 10 23 9 8 -1 27
11 42 27 15 15 24 28 20 28 -4 0 1 5 11 11 9 6 15 14 12 20 -4 5 -1 9 5 9 6 0
8 5 5 10 -3 6 -1 10 5 10 6 0 8 5 5 10 -3 6 0 10 7 10 9 0 9 3 -2 10 -13 8
-13 10 1 10 11 0 15 8 14 25 -2 14 0 25 5 25 10 0 8 20 -4 39 -6 9 -5 12 0 8
6 -3 15 7 21 24 6 16 7 27 3 24 -5 -3 -3 7 5 21 8 15 12 31 9 36 -3 4 -1 8 5
8 5 0 8 8 7 18 -2 9 1 20 6 23 5 3 10 17 11 30 0 13 5 27 10 30 14 10 17 70 3
63 -6 -3 -3 1 8 10 10 8 15 20 10 27 -4 7 -3 10 4 5 6 -4 11 1 11 11 1 40 5
53 15 53 6 0 4 4 -4 10 -12 8 -12 10 3 16 9 3 17 10 17 16 0 5 -6 6 -12 2 -10
-6 -10 -4 0 7 6 7 12 21 12 30 0 9 7 22 15 29 9 7 14 19 11 27 -3 8 -1 11 4 8
6 -3 10 -1 10 4 0 22 2 26 18 45 13 15 13 17 2 11 -12 -7 -13 -6 -3 7 7 8 10
18 6 21 -3 4 -1 7 6 7 7 0 10 4 6 9 -3 5 0 13 6 16 5 4 8 13 5 20 -2 7 2 24 9
39 10 19 11 24 2 19 -9 -5 -9 -3 0 9 7 8 10 18 6 21 -3 4 0 7 8 7 11 0 11 2
-1 10 -11 7 -11 10 -2 10 9 0 12 10 8 30 -2 16 0 32 5 36 5 3 6 10 3 16 -4 6
0 14 7 19 10 6 11 9 2 9 -7 0 -13 5 -13 11 0 5 5 7 10 4 10 -6 12 0 12 48 1
15 5 27 10 27 5 0 7 4 3 9 -3 5 -1 12 5 16 5 3 8 16 6 28 -2 12 3 35 11 51 8
15 10 25 5 22 -6 -4 -8 2 -5 14 3 11 9 17 14 14 5 -3 9 0 9 5 0 6 -6 11 -12
11 -9 0 -8 3 2 10 8 5 11 12 8 16 -4 3 0 20 8 36 9 17 11 27 5 24 -6 -4 -11
-2 -11 3 0 6 4 11 9 11 5 0 8 11 7 25 -2 14 2 29 8 35 7 5 11 23 10 40 -1 17
3 30 9 30 7 0 5 5 -3 10 -8 5 -10 10 -4 10 5 0 11 10 11 23 1 21 9 59 13 65 2
1 3 5 4 10 1 4 5 13 10 21 6 10 5 12 -2 7 -7 -4 -12 -2 -12 4 0 6 6 13 13 15
6 3 12 20 11 38 0 17 6 43 14 56 10 17 10 21 1 16 -9 -6 -10 -3 -4 11 4 10 8
31 9 46 0 15 4 24 9 21 5 -3 8 3 7 13 -4 35 0 45 13 38 8 -5 8 -2 -2 9 -8 10
-9 17 -3 17 6 0 9 9 7 20 -2 11 0 20 5 20 5 0 7 9 5 20 -2 11 0 20 5 20 4 0 7
11 6 24 -2 15 3 27 12 31 11 4 12 8 2 20 -10 12 -10 15 0 15 7 0 10 8 7 20 -3
11 -1 20 3 20 5 0 7 12 4 26 -3 17 -1 23 7 19 8 -5 7 -1 -1 15 -8 15 -8 20 -1
16 11 -7 13 -2 14 47 1 15 4 27 7 27 3 0 7 12 8 27 1 15 7 32 13 38 13 13 81
16 72 2 -4 -6 -1 -7 8 -1 8 5 25 9 39 9 14 0 31 4 39 9 9 6 12 5 8 -1 -7 -12
17 -26 27 -16 9 10 86 11 92 2 3 -5 10 -7 15 -3 19 11 58 14 64 4 4 -6 11 -7
17 -4 5 4 25 8 44 10 25 2 33 0 27 -9 -4 -8 -2 -8 9 1 11 9 18 10 23 2 3 -6
11 -8 16 -4 5 3 21 7 35 10 18 3 23 1 18 -7 -5 -8 -3 -9 7 -3 8 5 25 9 39 9
14 0 31 4 39 9 9 6 12 5 8 -1 -7 -12 17 -26 27 -16 9 10 86 11 92 2 3 -5 10
-7 15 -3 19 11 58 14 64 3 5 -7 14 -4 28 8 11 10 17 13 14 7 -8 -13 17 -27 28
-16 10 10 39 8 47 -3 5 -6 8 -6 8 1 0 6 11 10 25 9 14 -2 25 2 26 8 0 7 4 3 9
-8 7 -17 9 -17 9 -2 1 9 6 17 12 17 5 0 8 -4 5 -8 -2 -4 10 -8 29 -8 19 0 31
4 28 9 -3 5 4 4 15 -2 14 -7 23 -8 27 -1 4 6 12 7 18 3 17 -12 77 -10 77 2 0
7 3 7 8 0 4 -5 15 -11 25 -12 13 -1 17 4 13 15 -5 13 -2 12 9 -2 9 -12 15 -15
15 -7 0 11 3 11 17 0 11 -10 14 -10 9 -1 -4 6 -3 12 1 12 5 0 15 -6 22 -12 9
-9 12 -9 7 -1 -4 8 5 11 31 9 21 -2 44 2 51 7 9 7 16 7 20 0 4 -5 16 -8 27 -6
45 9 101 9 112 1 7 -6 14 -4 19 3 5 8 3 9 -6 4 -9 -5 -11 -4 -6 4 6 9 11 9 22
0 11 -9 14 -9 14 1 0 10 3 10 15 0 12 -10 15 -10 15 1 0 11 2 11 10 -1 7 -11
10 -11 10 -2 0 7 5 10 11 7 17 -11 68 -12 62 -1 -4 5 1 7 10 3 10 -4 17 -1 17
6 0 7 3 8 8 2 10 -14 32 -17 32 -4 0 8 4 8 13 0 10 -8 17 -7 25 1 9 9 12 9 12
-1 0 -7 4 -9 10 -6 20 12 50 14 50 2 0 -8 3 -8 8 -2 9 13 74 17 67 4 -3 -5 1
-6 9 -3 9 3 14 10 11 14 -8 12 39 -2 47 -14 5 -8 8 -7 8 1 0 15 41 12 58 -4 7
-7 14 -22 15 -32 0 -11 4 -18 8 -15 9 5 30 -56 23 -67 -3 -5 0 -9 5 -9 6 0 10
-3 9 -7 -4 -17 14 -73 23 -73 6 0 7 -5 4 -10 -4 -6 -2 -16 3 -23 5 -7 8 -20 7
-29 -2 -10 1 -18 6 -18 6 0 7 -4 4 -10 -3 -5 -1 -10 4 -10 6 0 11 -5 11 -11 0
-5 -5 -7 -11 -3 -6 3 -4 -5 5 -18 9 -13 17 -36 18 -51 1 -15 6 -27 11 -27 5 0
7 -7 3 -15 -3 -8 -1 -15 3 -15 5 0 12 -18 16 -40 4 -22 11 -40 16 -40 6 0 9
-6 8 -12 -3 -18 24 -108 32 -108 4 0 10 -16 13 -35 4 -19 14 -39 24 -44 14 -8
14 -10 2 -11 -12 0 -12 -2 -2 -9 8 -4 14 -11 14 -14 0 -19 11 -47 19 -47 5 0
6 -7 3 -15 -4 -8 -1 -15 5 -15 6 0 11 -4 11 -9 0 -5 5 -22 11 -38 6 -15 10
-30 9 -32 -1 -2 4 -8 12 -12 11 -7 11 -9 -1 -9 -8 0 -4 -8 10 -21 13 -11 18
-18 12 -14 -17 8 -16 0 2 -36 9 -16 13 -34 10 -39 -3 -6 2 -10 12 -11 11 0 13
-3 5 -6 -10 -4 -9 -9 5 -20 10 -8 12 -12 6 -8 -18 9 -16 -6 4 -34 9 -14 11
-21 5 -17 -17 10 -15 0 4 -19 14 -13 14 -18 2 -32 -7 -9 -8 -14 -2 -10 7 4 16
-10 23 -36 7 -23 17 -50 23 -61 7 -14 6 -16 -4 -10 -10 6 -10 4 1 -9 8 -10 15
-27 16 -40 1 -12 3 -28 4 -35 0 -8 6 -10 14 -6 8 5 8 2 -2 -9 -9 -11 -10 -17
-2 -17 6 0 11 -5 11 -11 0 -5 -6 -7 -12 -3 -7 4 -5 -1 4 -12 14 -16 15 -23 5
-34 -10 -10 -9 -11 2 -5 11 6 13 4 8 -7 -3 -9 -3 -19 1 -23 3 -3 7 -18 8 -33
1 -15 3 -28 4 -29 4 -4 7 -21 9 -44 1 -13 5 -18 14 -13 9 6 9 5 0 -7 -10 -13
-9 -23 6 -52 10 -20 15 -34 10 -31 -13 8 -11 -3 10 -47 11 -21 14 -36 8 -32
-7 4 -6 -1 2 -10 7 -9 10 -17 5 -17 -5 0 -2 -5 6 -10 11 -7 12 -10 2 -10 -10
0 -9 -4 3 -16 12 -12 13 -19 5 -24 -8 -5 -7 -9 4 -13 9 -4 13 -13 10 -22 -3
-8 -1 -15 6 -15 6 0 9 -4 5 -9 -3 -5 2 -17 11 -25 11 -12 12 -16 2 -16 -10 0
-9 -3 2 -10 8 -5 11 -10 5 -10 -5 0 -3 -5 5 -10 13 -9 13 -10 0 -10 -13 0 -13
-1 0 -10 8 -5 15 -17 15 -27 0 -10 4 -24 9 -32 7 -11 6 -12 -5 -6 -12 8 -12 6
0 -8 7 -9 10 -17 7 -17 -4 0 0 -7 8 -16 9 -8 14 -20 10 -25 -3 -6 0 -16 6 -24
10 -12 10 -15 1 -15 -8 0 -7 -6 3 -16 9 -8 14 -20 11 -25 -4 -5 -1 -9 5 -9 6
0 8 -5 5 -10 -4 -6 -1 -17 5 -25 7 -8 9 -15 5 -15 -4 0 -1 -8 6 -17 12 -15 12
-16 -1 -8 -9 5 -8 0 4 -13 11 -12 15 -22 10 -22 -5 0 -2 -5 6 -10 13 -9 13
-10 0 -10 -12 -1 -11 -3 3 -11 9 -6 15 -14 12 -20 -4 -5 -1 -9 4 -9 6 0 11 -5
11 -10 0 -14 62 -74 81 -79 8 -2 20 -4 27 -4 6 0 12 -7 12 -16 0 -9 3 -12 8
-6 9 13 32 18 32 7 0 -5 12 -7 28 -6 38 4 68 5 140 4 15 0 38 0 52 1 14 0 31
0 38 0 6 -1 19 -1 27 -1 8 0 27 0 43 0 15 0 38 0 52 1 14 0 31 0 38 0 6 -1 18
-1 25 -2 6 0 21 2 33 4 11 3 27 2 34 -3 7 -4 25 -4 40 0 15 4 33 4 41 -1 8 -4
19 -3 28 4 12 10 13 9 7 -1 -7 -11 -4 -12 12 -3 26 14 35 14 27 1 -3 -5 -1
-10 4 -10 6 0 11 5 11 11 0 6 9 8 20 4 11 -3 20 -2 20 3 0 6 11 9 25 7 14 -1
25 2 25 7 0 5 4 7 9 4 5 -3 14 1 21 9 7 8 16 12 21 9 5 -3 9 -1 9 5 0 5 9 12
19 16 12 4 18 12 14 21 -3 7 0 14 6 14 12 0 64 100 56 108 -3 3 1 12 8 20 10
13 9 15 -3 8 -12 -6 -11 -4 1 6 9 7 14 19 11 27 -3 8 0 11 7 7 8 -5 8 0 1 18
-6 17 -6 27 2 32 7 5 8 2 3 -7 -5 -8 -4 -11 0 -6 5 4 10 17 11 30 6 46 10 63
18 75 4 7 6 16 2 19 -3 3 2 12 10 20 11 12 12 18 3 29 -9 11 -8 15 4 20 9 3
14 14 12 25 -2 10 0 19 6 19 5 0 9 5 9 11 0 5 -6 7 -12 3 -7 -4 -4 2 6 14 11
12 16 22 11 22 -4 0 -1 8 6 17 12 14 12 16 0 8 -11 -6 -12 -5 -5 6 9 16 15 35
17 62 1 9 5 17 9 17 4 0 5 7 2 15 -4 8 -1 15 4 15 6 0 9 14 7 30 -3 21 -1 28
7 24 7 -5 9 -2 5 8 -3 9 -3 19 1 22 3 4 7 13 9 21 7 35 9 41 17 54 7 11 6 12
-5 6 -11 -7 -12 -6 -2 6 12 15 24 59 27 97 0 12 5 22 9 22 5 0 6 4 2 9 -3 5
-1 12 4 16 6 3 9 21 7 40 -1 20 2 31 8 28 5 -4 7 1 3 10 -3 9 -2 19 3 22 6 4
10 11 10 16 0 6 -6 7 -12 3 -9 -6 -9 -3 1 9 7 9 11 24 7 32 -3 9 -2 13 4 10
10 -6 14 6 10 39 -1 12 3 16 10 11 9 -6 9 -2 1 13 -8 16 -7 21 4 26 12 4 13
11 5 31 -7 17 -7 24 0 20 6 -3 10 2 10 12 0 11 6 25 13 32 10 11 9 12 -3 6
-12 -6 -12 -5 -3 5 6 7 9 19 6 26 -3 8 0 14 6 14 6 0 11 5 11 11 0 5 -6 7 -12
3 -7 -4 -4 3 7 16 12 14 14 20 5 15 -9 -5 -7 1 5 15 11 13 14 20 8 16 -17 -9
-16 3 2 37 9 18 10 25 2 20 -9 -5 -9 -3 0 8 7 9 14 31 15 50 2 19 10 40 18 47
8 8 10 11 3 8 -6 -4 -14 -2 -17 3 -3 5 1 11 9 14 8 4 12 15 10 27 -2 11 0 20
5 20 4 0 6 9 3 20 -3 11 -1 20 4 20 8 0 10 8 15 65 1 14 5 25 9 25 5 0 6 9 4
20 -2 11 1 20 7 20 5 0 8 7 4 15 -3 8 0 15 7 15 9 0 9 2 0 8 -10 7 -10 12 1
27 8 11 11 26 8 34 -3 9 -1 12 6 7 8 -5 10 -2 5 9 -3 10 0 21 8 26 11 6 11 9
1 9 -9 0 -10 5 -3 19 6 10 7 22 3 25 -4 4 21 5 55 3 44 -3 60 -1 56 7 -4 6 0
5 9 -2 12 -9 18 -10 23 -2 5 8 14 6 28 -7 11 -10 17 -13 14 -7 -4 7 3 14 18
16 14 3 22 1 19 -4 -4 -6 8 -8 30 -5 20 3 39 1 42 -4 3 -5 11 -6 17 -2 17 11
79 11 101 0 13 -6 16 -6 12 2 -4 6 0 11 8 11 9 0 16 -5 16 -10 0 -7 6 -7 18
-1 26 14 34 14 42 1 5 -8 13 -9 21 -4 19 11 59 14 59 4 0 -6 9 -6 23 -1 12 5
32 5 44 0 12 -4 25 -4 28 1 3 5 18 5 35 0 18 -5 32 -5 35 1 4 5 13 9 21 9 8 0
13 -4 10 -8 -2 -4 4 -8 14 -8 10 0 16 4 13 9 -3 4 14 6 36 4 23 -2 41 0 41 5
0 5 5 6 10 3 6 -4 18 -1 27 7 9 7 14 8 10 2 -7 -13 67 -14 79 -1 4 3 15 2 25
-3 11 -6 20 -6 23 -1 7 11 25 9 45 -3 10 -7 12 -6 6 4 -5 8 -3 11 6 8 8 -3 26
-2 41 3 14 4 29 5 32 1 10 -10 56 -8 56 2 0 5 7 1 15 -10 14 -18 15 -18 9 0
-6 16 -4 17 14 7 17 -9 22 -9 22 0 0 8 4 8 15 -1 12 -10 15 -10 15 1 0 11 2
11 10 -1 8 -12 10 -12 10 -1 0 10 3 11 14 2 11 -9 15 -9 19 1 4 10 10 8 21 -6
16 -19 16 -19 16 5 0 18 3 20 9 10 5 -8 18 -12 30 -8 12 3 21 0 21 -6 0 -8 3
-7 9 1 4 8 12 14 16 14 4 0 12 -6 16 -14 5 -7 9 -8 9 -2 0 6 7 11 15 11 8 0
15 -5 15 -11 0 -6 4 -5 9 2 4 8 12 14 16 14 4 0 12 -6 16 -14 7 -11 9 -11 9 1
0 11 3 11 17 0 9 -8 14 -9 10 -3 -7 12 86 9 107 -3 6 -4 4 2 -4 12 -9 12 -10
16 -2 11 17 -10 112 -14 118 -4 3 4 14 3 25 -2 13 -7 19 -7 19 0 0 5 10 8 23
6 12 -2 27 1 34 6 7 6 14 5 18 -2 5 -8 11 -7 22 1 12 10 16 10 24 -2 7 -11 9
-11 9 0 0 7 6 11 15 7 8 -3 15 0 15 6 0 7 4 7 13 0 10 -9 19 -7 37 5 13 9 20
11 16 5 -4 -7 -3 -12 3 -12 5 0 13 5 16 11 5 7 15 4 32 -6 14 -10 22 -12 19
-6 -8 12 -8 12 49 16 22 1 48 6 58 10 11 5 17 3 17 -6 0 -9 3 -10 8 -4 10 14
45 16 54 2 6 -9 8 -8 8 2 0 11 3 11 15 1 8 -7 13 -16 10 -20 -3 -4 2 -11 11
-14 9 -4 14 -9 11 -13 -4 -3 1 -12 11 -20 9 -8 11 -11 3 -7 -11 6 -13 3 -7
-12 5 -10 13 -31 18 -46 5 -16 15 -28 20 -28 6 0 8 -9 5 -20 -3 -11 -2 -18 2
-16 4 3 13 -11 20 -30 7 -18 16 -34 21 -34 5 0 7 -7 4 -15 -4 -8 -1 -15 5 -15
7 0 11 -8 9 -17 -2 -10 2 -17 8 -16 7 1 11 -3 11 -10 -1 -20 24 -77 35 -77 5
0 6 -5 3 -11 -4 -5 1 -20 12 -31 12 -14 13 -19 3 -13 -9 5 -8 0 4 -13 11 -12
20 -31 21 -42 1 -10 10 -29 21 -41 10 -12 13 -19 7 -15 -7 4 -13 2 -13 -3 0
-6 5 -11 10 -11 6 0 10 -7 10 -16 0 -8 4 -13 9 -10 5 4 8 -2 7 -11 -2 -10 2
-21 8 -25 7 -5 7 -8 -2 -8 -10 0 -10 -4 2 -15 8 -8 13 -24 11 -35 -2 -11 0
-18 5 -15 13 8 20 -9 10 -25 -6 -10 -2 -22 12 -37 16 -17 18 -23 7 -23 -12 0
-12 -2 0 -9 8 -5 16 -15 17 -23 10 -48 15 -62 24 -68 6 -4 8 -14 4 -23 -3 -10
-1 -17 6 -17 6 0 8 -4 5 -10 -3 -5 -2 -10 4 -10 5 0 8 -9 6 -20 -2 -11 1 -20
6 -20 6 0 7 -4 4 -10 -3 -5 -1 -10 5 -10 6 0 8 -4 5 -10 -3 -5 -2 -10 4 -10 6
0 8 -7 5 -15 -4 -8 -1 -15 5 -15 6 0 8 -7 4 -17 -5 -12 -3 -14 7 -8 9 5 11 4
6 -4 -4 -6 -2 -19 6 -28 11 -14 11 -16 -2 -8 -8 4 -4 -4 9 -18 14 -15 19 -27
12 -27 -8 0 -4 -12 10 -32 13 -17 18 -29 12 -25 -6 4 -2 -11 9 -34 11 -23 21
-51 24 -63 2 -11 8 -22 14 -24 5 -2 10 -8 10 -13 0 -6 -5 -7 -11 -3 -6 3 -4
-5 5 -18 9 -14 13 -28 9 -31 -3 -4 -1 -7 6 -7 7 0 9 -5 6 -10 -3 -6 1 -13 9
-16 9 -3 13 -10 11 -15 -3 -4 3 -27 14 -49 10 -22 14 -37 8 -33 -7 3 -4 -3 6
-14 9 -11 14 -23 10 -26 -3 -4 -1 -7 5 -7 7 0 12 -5 12 -11 0 -5 -6 -7 -12 -4
-7 4 -5 0 4 -8 10 -8 15 -17 11 -20 -3 -4 -1 -7 6 -7 7 0 10 -4 6 -9 -3 -5 0
-13 6 -16 5 -4 8 -13 5 -20 -2 -7 1 -16 9 -19 7 -2 12 -16 11 -29 -2 -18 1
-24 11 -20 9 3 14 0 13 -8 -4 -26 0 -40 9 -34 6 3 8 -4 6 -15 -2 -11 1 -20 6
-20 6 0 7 -4 4 -10 -3 -5 -1 -10 5 -10 7 0 10 -6 7 -14 -3 -8 -1 -16 4 -18 5
-2 11 -13 12 -26 0 -12 5 -22 9 -22 4 0 8 -7 8 -16 0 -8 4 -13 9 -10 5 4 8 -2
6 -11 -1 -10 6 -28 17 -40 11 -12 17 -26 14 -31 -3 -6 1 -13 10 -16 9 -4 14
-9 11 -12 -8 -8 16 -33 25 -27 4 2 5 -2 2 -10 -3 -8 5 -21 19 -30 13 -9 32
-23 41 -32 9 -9 16 -13 16 -10 0 4 11 0 24 -8 17 -12 26 -13 35 -4 8 8 11 8
11 -1 0 -7 5 -12 11 -12 5 0 8 4 4 9 -6 10 33 6 43 -4 3 -2 12 0 19 7 9 7 17
8 21 2 6 -8 26 -11 35 -4 9 7 36 7 31 -1 -3 -5 0 -9 5 -9 6 0 11 5 11 10 0 6
5 10 11 10 5 0 8 -4 5 -8 -2 -4 4 -8 14 -8 10 0 17 3 14 7 -3 6 18 5 36 -1 14
-5 47 -4 61 2 8 4 21 3 29 -2 8 -5 19 -6 25 -2 15 9 36 11 31 3 -3 -4 10 -7
29 -7 18 0 31 4 29 7 -3 6 19 5 36 -1 14 -5 47 -4 61 2 8 4 21 3 29 -2 8 -5
19 -6 25 -2 16 10 36 11 29 1 -3 -5 0 -9 5 -9 6 0 11 5 11 10 0 6 5 10 11 10
5 0 8 -4 5 -8 -2 -4 4 -8 14 -8 10 0 17 3 14 7 -5 9 17 6 33 -4 6 -4 15 -3 18
3 5 7 11 8 19 1 7 -6 17 -6 26 -1 8 6 22 10 30 10 13 0 13 -1 0 -10 -9 -6 -10
-10 -3 -10 6 0 18 6 25 13 7 7 25 12 41 10 18 -1 25 2 21 9 -5 7 -1 9 9 5 9
-3 23 1 31 9 9 8 18 15 21 14 21 -1 25 1 20 10 -3 5 0 10 8 10 7 0 20 11 27
25 7 13 16 22 21 20 4 -3 5 4 2 15 -3 11 -1 26 4 33 5 6 9 35 8 62 -3 66 -4
67 -14 61 -5 -3 -8 6 -8 20 0 15 -6 29 -12 33 -6 4 -14 18 -16 31 -3 13 -11
28 -20 32 -8 5 -15 16 -15 23 0 8 -5 15 -11 15 -5 0 -8 4 -5 9 3 5 -1 11 -9
15 -8 3 -15 12 -15 21 0 8 -5 15 -11 15 -5 0 -8 4 -5 9 3 5 -1 12 -10 15 -9 4
-14 9 -11 12 3 4 -1 13 -9 21 -8 9 -13 22 -10 29 3 8 0 13 -7 11 -7 -1 -11 4
-9 11 1 6 -3 12 -9 12 -6 0 -8 7 -5 16 3 8 2 12 -4 9 -6 -3 -10 1 -10 9 0 9
-5 16 -10 16 -6 0 -9 3 -8 8 3 14 -31 82 -42 82 -6 0 -9 4 -6 9 3 5 -6 31 -20
57 -14 27 -28 57 -30 68 -2 10 -10 26 -18 35 -8 9 -15 19 -16 23 -8 35 -14 48
-22 48 -6 0 -8 7 -4 15 3 8 -2 19 -12 24 -9 6 -13 11 -8 11 5 0 2 8 -5 17 -12
14 -12 16 1 9 8 -4 5 1 -8 12 -15 14 -18 22 -10 25 10 4 10 6 1 6 -7 1 -13 8
-13 16 0 8 -5 15 -10 15 -6 0 -9 3 -9 7 1 5 1 17 0 28 -1 17 -3 18 -12 5 -9
-12 -10 -11 -6 8 3 12 1 22 -5 22 -5 0 -7 4 -4 9 3 5 -1 12 -9 15 -8 3 -14 9
-13 13 3 16 -14 63 -24 63 -5 0 -6 5 -3 10 3 6 1 10 -5 10 -6 0 -8 5 -5 10 3
6 1 10 -5 10 -6 0 -8 5 -5 10 3 6 1 10 -4 10 -6 0 -10 6 -8 13 1 6 -4 11 -11
9 -8 -1 -10 2 -7 8 4 6 -1 21 -12 32 -10 12 -12 18 -5 14 16 -9 16 -1 -1 16
-21 21 -58 90 -45 82 7 -4 5 2 -4 13 -10 11 -18 25 -18 31 0 7 -4 12 -10 12
-5 0 -10 6 -10 14 0 16 -35 81 -58 108 -8 9 -11 22 -7 27 3 6 2 11 -3 11 -4 0
-14 16 -22 35 -8 19 -18 35 -22 35 -5 0 -7 4 -3 9 3 5 -3 17 -12 27 -10 9 -18
22 -19 28 0 6 -2 17 -2 24 -1 7 -6 10 -12 7 -6 -4 -7 1 -3 11 4 10 2 15 -3 11
-6 -3 -11 4 -11 15 -1 12 -6 24 -12 27 -9 6 -31 53 -37 78 -1 7 -9 20 -18 29
-15 14 -18 22 -15 40 0 4 -3 10 -8 13 -4 3 -19 29 -33 56 -14 28 -29 53 -33
56 -5 3 -8 9 -8 13 2 10 -43 101 -51 104 -5 2 -6 7 -3 12 3 5 -2 16 -11 25 -9
9 -14 19 -10 22 3 3 -1 11 -10 17 -8 6 -16 21 -17 34 0 12 -4 22 -8 22 -4 0
-12 14 -19 30 -7 17 -16 30 -21 30 -5 0 -8 3 -7 8 4 13 -31 92 -41 92 -6 0 -8
9 -6 19 2 11 -3 22 -11 25 -9 3 -13 10 -10 15 4 5 1 11 -4 13 -6 2 -12 13 -13
26 0 12 -7 22 -15 22 -7 0 -11 4 -8 9 6 10 -33 91 -49 103 -5 4 -6 8 -1 8 5 0
3 7 -4 15 -6 8 -8 20 -4 26 4 7 3 9 -2 6 -6 -3 -16 3 -23 15 -10 16 -10 19 1
12 7 -4 5 2 -6 14 -10 12 -16 28 -13 37 4 8 3 14 -1 12 -4 -1 -8 2 -9 7 -1 5
-7 12 -13 16 -7 4 -12 19 -12 34 0 14 -4 23 -9 20 -5 -3 -9 2 -9 11 0 9 -7 27
-16 40 -9 14 -14 25 -11 25 4 0 -5 21 -18 48 -13 26 -25 54 -27 62 -2 8 -10
20 -18 27 -13 11 -13 12 -1 13 11 0 9 4 -5 15 -10 8 -15 15 -10 15 6 0 1 7
-10 16 -10 8 -13 13 -7 9 9 -4 11 -1 7 9 -3 9 -10 16 -16 16 -5 0 -6 5 -3 10
3 6 1 10 -5 10 -7 0 -10 6 -8 12 3 7 -1 19 -9 26 -7 8 -11 18 -8 23 4 5 1 9
-4 9 -6 0 -11 8 -11 18 0 10 -4 22 -8 27 -21 24 -63 107 -51 100 8 -5 2 5 -14
22 -15 16 -24 32 -21 36 4 4 -1 17 -12 29 -12 13 -13 18 -4 13 9 -5 8 0 -4 13
-11 12 -16 25 -13 29 4 3 -1 13 -11 22 -9 9 -17 21 -17 26 -1 18 -37 95 -44
95 -4 0 -8 7 -9 15 -1 8 -3 22 -4 30 -1 8 -8 17 -17 20 -13 5 -13 8 -2 14 11
7 9 10 -7 15 -12 4 -19 13 -16 21 3 7 0 16 -5 20 -6 3 -9 11 -6 16 4 5 1 9 -5
9 -6 0 -8 5 -5 10 3 6 1 10 -5 10 -6 0 -9 4 -5 9 3 5 1 12 -5 16 -6 4 -8 11
-5 16 4 5 1 9 -5 9 -6 0 -8 5 -5 10 3 6 1 10 -4 10 -6 0 -11 7 -11 15 0 8 -5
15 -11 15 -5 0 -7 5 -4 10 4 6 -3 25 -14 44 -11 18 -18 36 -14 39 3 4 1 7 -6
7 -7 0 -9 5 -6 10 3 6 1 10 -5 10 -6 0 -8 5 -5 10 3 6 1 10 -5 10 -6 0 -9 4
-5 9 3 5 -1 15 -8 23 -8 7 -13 21 -11 30 1 9 -5 19 -13 22 -8 4 -13 13 -10 20
3 8 2 16 -3 18 -5 2 -10 10 -12 18 -2 8 -9 21 -16 29 -11 11 -11 15 0 22 10 7
9 9 -5 9 -9 0 -16 3 -15 8 3 16 -15 62 -25 62 -6 0 -7 3 -4 7 4 3 -1 15 -10
26 -10 11 -13 17 -6 13 7 -4 4 10 -7 31 -18 34 -44 98 -40 98 1 0 -5 13 -14
29 -8 16 -12 34 -9 39 3 6 1 7 -5 3 -8 -5 -12 0 -12 13 0 11 -4 23 -10 26 -5
3 -10 15 -10 26 0 10 -5 19 -11 19 -5 0 -7 5 -4 10 4 6 1 18 -7 27 -11 14 -11
15 0 9 11 -7 11 -4 0 13 -7 12 -17 21 -23 21 -5 0 -3 5 5 10 11 7 11 10 2 10
-7 0 -10 5 -7 10 3 6 2 10 -3 10 -9 0 -11 8 -15 54 -1 13 -5 22 -8 20 -9 -5
-20 26 -13 37 3 5 0 9 -6 9 -6 0 -9 4 -6 9 3 4 -1 17 -9 27 -18 23 -19 38 -3
28 6 -4 -2 10 -18 31 -16 22 -23 36 -17 31 16 -9 6 22 -14 45 -7 9 -10 19 -7
22 4 4 1 14 -7 23 -8 10 -13 20 -12 23 5 11 -8 41 -17 41 -5 0 -7 9 -5 20 2
11 0 20 -6 20 -5 0 -8 3 -7 8 1 4 -3 17 -10 30 -7 12 -10 22 -6 22 3 0 1 6 -5
13 -6 8 -8 17 -4 20 3 4 1 7 -6 7 -7 0 -10 4 -6 9 3 5 1 12 -5 16 -6 4 -8 11
-5 16 4 5 2 9 -3 9 -6 0 -13 7 -16 16 -4 9 -2 13 5 8 6 -3 4 5 -5 18 -9 14
-13 28 -9 31 3 4 2 7 -4 7 -10 0 -28 46 -25 63 1 4 -2 7 -8 7 -5 0 -10 9 -10
20 0 11 -5 20 -10 20 -6 0 -9 3 -9 8 1 4 0 10 -1 15 -4 12 -7 26 -9 38 0 5 -6
7 -13 3 -7 -4 -8 -3 -4 4 4 6 0 22 -9 35 -8 13 -12 27 -8 30 3 4 1 7 -6 7 -7
0 -10 4 -7 9 3 5 -3 20 -14 34 -11 14 -19 29 -18 34 1 4 -3 17 -9 28 -6 11
-13 25 -15 30 -1 6 -6 9 -11 7 -4 -1 -6 1 -5 6 5 14 -36 101 -45 95 -5 -3 -4
4 2 16 9 17 9 21 -1 19 -7 -2 -12 3 -11 10 2 6 -3 12 -10 12 -8 0 -7 4 3 10
10 7 11 10 2 10 -11 0 -36 47 -32 59 1 2 -3 7 -8 10 -6 3 -12 15 -14 26 -1 11
-11 29 -21 40 -10 10 -15 25 -13 32 3 7 1 13 -5 13 -6 0 -7 5 -4 10 3 6 1 10
-6 10 -7 0 -9 3 -6 6 4 4 -3 20 -15 37 -13 17 -16 27 -7 22 12 -8 12 -6 1 8
-8 9 -11 21 -7 27 4 6 1 9 -7 8 -7 -2 -12 4 -10 14 1 10 -6 23 -17 29 -10 7
-17 18 -14 25 2 6 -1 15 -6 19 -6 3 -9 11 -6 16 4 5 1 9 -5 9 -6 0 -8 5 -5 10
3 6 2 10 -3 10 -6 0 -13 7 -16 16 -4 10 -2 13 7 8 6 -4 3 2 -7 14 -11 12 -15
22 -10 22 5 0 1 7 -10 15 -10 8 -18 26 -18 40 0 14 -5 25 -11 25 -6 0 -8 3 -4
6 3 4 -1 13 -9 21 -8 9 -13 22 -10 30 3 7 -1 16 -9 19 -8 4 -12 10 -9 15 3 5
-1 9 -8 9 -9 0 -9 3 2 10 12 8 12 10 -5 11 -11 0 -15 3 -8 6 9 3 7 11 -7 26
-18 19 -25 38 -21 60 0 4 -4 7 -10 7 -6 0 -9 7 -5 15 3 8 1 15 -4 15 -6 0 -10
7 -10 16 0 9 -9 29 -21 45 -14 20 -16 29 -7 29 7 1 3 9 -11 20 -14 12 -18 20
-10 20 10 1 9 4 -3 14 -10 7 -15 16 -12 19 3 3 -1 16 -10 29 -9 12 -16 27 -16
33 0 5 5 3 10 -5 6 -9 10 -10 10 -3 0 7 -6 16 -12 20 -12 7 -17 22 -20 61 -1
6 -5 12 -10 12 -5 0 -6 5 -3 10 4 6 1 18 -7 27 -9 12 -9 15 -1 9 9 -5 11 -2 7
8 -3 9 -9 16 -13 16 -4 0 -8 6 -9 13 -3 37 -8 53 -20 65 -7 8 -10 17 -7 22 3
4 -2 11 -11 14 -9 4 -14 9 -11 13 8 7 -73 89 -85 86 -4 -2 -8 3 -8 11 0 14
-36 32 -52 28 -5 -1 -8 3 -8 10 0 6 -3 8 -7 5 -3 -4 -12 -2 -20 4 -9 9 -13 8
-13 0 0 -6 -5 -11 -11 -11 -5 0 -7 5 -4 10 3 6 1 10 -4 10 -6 0 -11 -5 -11
-11 0 -8 -4 -8 -14 0 -11 10 -17 8 -25 -6z m-4318 -1523 c7 0 6 -4 -2 -9 -12
-8 -12 -12 -2 -25 7 -8 9 -21 5 -27 -5 -8 -3 -9 6 -4 10 6 12 4 7 -8 -4 -10
-2 -17 5 -17 6 0 5 -6 -3 -17 -10 -11 -10 -14 -1 -9 6 4 12 5 12 2 0 -2 3 -12
7 -22 5 -13 3 -15 -8 -9 -10 6 -9 3 2 -11 9 -10 14 -25 11 -33 -3 -9 0 -11 8
-6 8 5 11 3 8 -6 -3 -8 -1 -22 4 -33 8 -14 7 -17 -4 -10 -8 5 -6 -2 5 -19 11
-17 13 -27 6 -27 -8 0 -9 -4 0 -13 6 -8 8 -17 4 -20 -3 -4 -2 -7 3 -7 5 0 11
-14 12 -32 2 -18 6 -35 10 -38 7 -5 12 -27 15 -62 1 -10 5 -18 9 -18 5 0 4
-10 -3 -21 -6 -12 -7 -19 -1 -15 12 7 19 -11 18 -46 -1 -14 2 -24 6 -22 4 3 9
-3 10 -13 2 -26 4 -36 13 -57 4 -10 8 -31 9 -46 1 -15 5 -25 10 -22 5 3 7 -2
3 -11 -3 -10 -2 -17 3 -17 6 0 10 -13 10 -30 0 -16 5 -30 11 -30 6 0 8 -9 4
-20 -4 -12 -2 -20 5 -20 6 0 9 -4 6 -9 -9 -15 5 -42 18 -34 6 4 5 -1 -3 -10
-11 -13 -11 -17 -1 -17 8 0 10 -3 7 -7 -4 -3 -1 -13 6 -21 10 -13 9 -14 -3 -7
-12 7 -13 6 -3 -7 7 -8 10 -18 6 -21 -3 -4 -2 -7 3 -7 5 0 11 -12 12 -27 1
-15 7 -30 14 -34 6 -4 8 -14 5 -23 -4 -9 -2 -16 3 -16 5 0 7 -9 5 -20 -2 -11
0 -20 6 -20 5 0 9 -13 9 -29 0 -17 5 -33 10 -36 6 -3 10 -15 10 -26 0 -10 5
-19 11 -19 8 0 8 -5 -1 -15 -7 -9 -8 -15 -2 -15 5 0 13 -7 16 -16 4 -10 2 -13
-7 -8 -6 4 -5 -1 4 -12 9 -10 19 -30 22 -44 3 -14 7 -34 10 -45 3 -11 7 -27 9
-35 1 -8 10 -20 18 -27 12 -10 12 -12 1 -13 -10 0 -11 -3 -2 -13 6 -8 8 -17 4
-20 -3 -4 -1 -7 5 -7 7 0 12 -9 12 -19 0 -11 4 -22 9 -26 6 -3 8 -14 6 -25 -2
-12 0 -18 6 -15 8 5 14 -23 10 -47 0 -5 3 -8 7 -8 5 0 9 -6 9 -12 1 -7 10 -39
21 -70 12 -32 18 -58 15 -58 -3 0 2 -10 13 -22 10 -12 13 -18 7 -14 -9 5 -11
2 -7 -8 3 -9 11 -13 16 -10 6 4 5 -3 -1 -15 -9 -16 -9 -21 0 -21 6 0 9 -9 6
-20 -3 -11 -1 -18 3 -15 11 7 23 -31 15 -45 -3 -5 -2 -10 4 -10 5 0 8 -8 7
-17 -2 -10 1 -21 5 -24 5 -3 10 -17 11 -32 1 -15 6 -27 10 -27 4 0 5 -9 3 -20
-2 -11 0 -20 5 -20 5 0 6 -7 3 -17 -4 -10 -2 -14 5 -9 7 4 10 -1 7 -14 -2 -11
0 -20 5 -20 4 0 6 -9 3 -20 -3 -12 0 -20 6 -20 7 0 10 -4 7 -9 -7 -11 4 -42
13 -37 3 2 6 -6 7 -17 1 -30 10 -66 24 -102 10 -27 15 -43 23 -80 2 -5 7 -17
12 -25 5 -8 10 -23 11 -35 4 -37 9 -50 24 -63 8 -8 9 -11 3 -7 -9 4 -11 1 -7
-9 3 -9 11 -16 16 -16 6 0 8 -7 5 -15 -4 -8 -2 -17 4 -20 5 -4 7 -11 4 -16 -4
-5 -1 -9 6 -9 7 0 9 -3 6 -6 -3 -4 -1 -16 5 -28 7 -11 13 -24 14 -28 1 -5 3
-11 4 -15 1 -5 2 -11 1 -15 0 -5 4 -8 10 -8 6 0 8 -7 5 -17 -4 -9 -1 -20 6
-24 8 -5 5 -8 -10 -6 -15 1 -21 6 -17 17 4 11 2 11 -8 -2 -8 -10 -17 -15 -20
-12 -11 11 -107 10 -107 -1 0 -5 -5 -3 -11 5 -8 11 -12 12 -16 2 -2 -6 -10 -9
-16 -5 -19 11 -177 10 -177 -2 0 -5 -4 -4 -9 4 -5 8 -16 11 -25 8 -9 -4 -16
-1 -16 5 0 6 -6 5 -17 -3 -13 -11 -17 -11 -20 -1 -3 6 -9 12 -14 12 -6 0 -8
-3 -6 -7 3 -5 -10 -9 -29 -9 -19 -1 -34 3 -34 8 0 5 -10 4 -21 -3 -16 -8 -20
-8 -14 1 6 9 2 9 -16 0 -17 -10 -24 -10 -27 -1 -2 6 -8 11 -13 11 -6 0 -8 -4
-5 -8 6 -10 -40 -10 -49 0 -4 4 -15 3 -25 -2 -19 -10 -38 -9 -59 4 -9 6 -12 5
-8 -1 4 -6 0 -14 -9 -17 -10 -4 -13 -2 -8 7 6 9 5 9 -7 0 -9 -7 -20 -8 -29 -3
-8 5 -21 5 -31 0 -9 -5 -19 -6 -23 -3 -3 3 -6 1 -6 -5 0 -10 -7 -10 -45 -2 -5
1 -12 1 -15 0 -19 -7 -137 -6 -147 2 -9 7 -15 5 -19 -6 -5 -14 -9 -14 -22 -4
-13 11 -14 11 -7 -1 6 -11 4 -13 -9 -8 -10 4 -22 7 -27 7 -6 0 -7 5 -3 12 4 7
3 8 -5 4 -6 -4 -9 -12 -6 -17 4 -5 -1 -9 -10 -9 -10 0 -13 5 -9 13 6 9 4 9 -7
1 -8 -6 -47 -10 -86 -10 -40 1 -73 -2 -73 -6 0 -4 -11 -3 -25 2 -18 7 -25 6
-25 -3 0 -8 -3 -8 -9 2 -6 9 -11 10 -15 2 -4 -6 -12 -11 -17 -11 -6 0 -7 5 -3
12 5 7 3 8 -7 2 -19 -12 -101 -12 -117 -1 -9 7 -11 5 -6 -8 6 -14 4 -16 -7 -9
-8 4 -21 9 -29 9 -19 0 -15 38 7 72 8 13 11 23 7 23 -5 0 0 7 10 15 13 10 15
15 6 15 -10 0 -9 4 3 18 13 15 14 21 4 32 -10 10 -9 11 2 5 11 -6 13 -4 8 8
-3 10 -2 17 4 17 6 0 7 5 4 10 -3 6 0 10 7 10 11 0 10 2 0 9 -11 7 -11 9 2 14
9 4 16 11 16 17 0 6 -4 9 -10 5 -5 -3 -3 7 5 21 8 15 12 31 9 36 -3 4 0 8 6 8
7 0 10 7 6 15 -3 8 -1 15 4 15 6 0 9 3 9 8 -4 25 3 62 10 57 6 -3 8 4 6 15 -2
11 1 20 7 20 7 0 7 5 -1 14 -8 10 -9 15 -1 18 6 2 11 14 12 28 1 14 6 31 12
39 6 7 11 23 11 35 0 11 4 27 8 34 5 6 5 17 2 22 -3 6 -2 10 4 10 6 0 7 7 4
17 -4 10 -2 14 4 10 6 -4 8 3 5 20 -3 17 -1 24 6 19 6 -4 8 2 5 14 -3 11 -1
20 5 20 6 0 9 11 6 25 -2 14 0 25 5 25 4 0 8 8 8 18 0 36 3 43 16 36 8 -5 8
-2 -2 9 -11 13 -11 17 -1 17 8 0 10 3 7 7 -4 3 -2 12 4 20 9 10 8 13 0 13 -7
0 -9 5 -6 10 4 6 11 7 17 4 6 -4 6 2 -1 15 -8 15 -9 21 -1 21 6 0 9 4 5 9 -3
5 -1 12 4 16 6 3 7 13 4 22 -4 10 -2 14 4 10 6 -4 8 3 5 18 -2 14 0 25 5 25 6
0 9 11 8 25 -2 14 0 25 5 25 5 0 7 8 5 18 -1 9 4 24 12 34 10 11 11 18 3 23
-5 3 -8 11 -4 16 3 5 11 6 17 2 9 -5 9 -3 0 8 -7 9 -8 20 -3 29 5 8 6 18 4 22
-3 4 -1 8 4 8 5 0 9 6 10 13 1 12 9 47 12 57 1 3 3 10 4 15 0 6 6 19 12 30 6
11 10 29 10 40 -1 11 5 26 12 33 7 8 10 17 7 22 -3 4 1 13 9 19 8 7 12 21 9
31 -3 11 0 27 7 35 7 8 9 15 5 15 -4 0 -1 8 6 17 8 10 9 14 2 10 -7 -5 -6 4 3
23 9 16 13 34 9 40 -3 5 -1 10 4 10 6 0 11 12 11 26 0 14 4 22 10 19 5 -3 7 0
4 9 -3 8 0 24 6 36 8 15 8 20 1 16 -7 -5 -9 -1 -5 8 3 9 10 16 14 16 4 0 7 8
7 18 0 35 3 43 14 36 8 -4 8 0 0 15 -7 12 -8 21 -2 21 8 0 19 33 26 75 1 6 3
12 4 15 3 5 9 31 14 55 2 8 6 18 10 21 11 12 8 26 -4 18 -6 -3 -3 5 6 20 10
14 14 26 10 26 -4 0 -2 7 5 15 7 9 10 18 6 22 -3 3 1 15 11 25 11 13 12 18 3
18 -9 0 -10 3 -1 13 6 8 8 17 4 20 -3 4 -1 7 5 7 6 0 9 6 6 14 -3 8 -1 17 5
21 6 3 11 11 11 16 0 6 -5 7 -11 3 -6 -3 -4 5 5 18 9 14 13 28 9 31 -3 4 -1 7
5 7 6 0 9 9 7 20 -2 11 -1 20 3 20 4 0 9 8 9 18 6 56 10 72 17 79 5 5 6 2 1
-6 -6 -10 -4 -12 4 -7 9 6 9 11 0 22 -9 11 -9 14 1 14 8 0 10 3 7 7 -4 3 -1
13 6 21 9 13 9 14 0 8 -7 -4 -13 -2 -13 3 0 6 4 11 9 11 5 0 12 7 15 16 4 10
2 13 -7 8 -9 -6 -9 -5 0 8 7 8 10 18 6 21 -3 4 -1 7 5 7 6 0 9 9 7 20 -2 11 1
22 6 25 5 4 7 11 4 16 -4 5 -1 9 6 9 8 0 8 4 -1 15 -10 12 -9 16 4 21 14 5 14
9 4 22 -10 12 -10 14 0 8 7 -4 12 -2 13 6 4 64 30 112 37 68 2 -11 9 -20 15
-20z m4475 -671 c9 -14 10 -19 2 -14 -7 4 -5 -4 4 -17 9 -14 13 -28 9 -31 -3
-4 -1 -7 5 -7 6 0 9 -7 6 -15 -4 -8 -1 -15 6 -15 7 0 10 -7 6 -15 -3 -8 -1
-15 5 -15 6 0 8 -4 4 -9 -3 -5 1 -16 9 -24 8 -8 13 -17 9 -20 -3 -3 2 -20 10
-36 9 -17 11 -31 6 -31 -5 0 -1 -9 10 -21 11 -12 17 -27 14 -35 -3 -9 2 -14
13 -15 11 0 14 -3 7 -5 -8 -4 -3 -26 17 -74 15 -38 26 -71 22 -74 -3 -3 3 -6
14 -6 16 0 17 -2 4 -10 -10 -6 -11 -10 -2 -10 6 0 11 -3 11 -7 -4 -22 2 -33
14 -27 7 5 6 0 -3 -11 -8 -10 -10 -16 -3 -12 7 5 16 -10 24 -43 7 -27 17 -50
21 -50 5 0 7 -4 4 -9 -8 -13 4 -42 14 -36 5 3 7 -6 4 -20 -3 -17 1 -27 12 -32
13 -5 13 -7 2 -14 -10 -7 -10 -9 0 -9 6 0 12 -7 12 -15 0 -8 9 -31 20 -50 11
-20 15 -33 9 -30 -6 4 -3 -4 6 -18 9 -14 18 -33 19 -42 1 -9 9 -21 17 -26 12
-7 12 -9 -1 -9 -12 0 -13 -2 -1 -9 8 -5 10 -14 6 -21 -5 -9 -4 -11 3 -6 12 7
16 -5 13 -31 -1 -7 4 -13 10 -13 7 0 9 -3 6 -7 -4 -3 1 -12 11 -20 10 -9 11
-12 2 -7 -10 5 -8 -1 5 -16 11 -13 14 -20 6 -15 -9 5 -8 0 3 -17 9 -14 13 -28
9 -31 -3 -4 -2 -7 4 -7 5 0 16 -18 23 -40 7 -22 19 -45 26 -51 7 -6 11 -16 8
-24 -3 -7 -1 -16 5 -20 6 -3 11 -15 11 -25 0 -10 5 -20 11 -22 5 -2 11 -10 12
-18 2 -8 7 -21 11 -29 7 -10 6 -12 -4 -6 -9 5 -11 4 -6 -3 4 -7 15 -12 24 -12
15 0 15 -2 2 -10 -10 -6 -11 -10 -3 -10 7 0 12 -3 11 -7 -1 -5 3 -18 10 -29 6
-12 9 -24 5 -27 -3 -4 2 -9 11 -13 13 -5 14 -9 5 -21 -10 -11 -10 -13 1 -11 8
2 15 -1 16 -7 4 -25 17 -55 23 -55 4 0 8 -10 8 -22 1 -13 7 -24 13 -26 5 -2
10 -15 10 -28 0 -14 4 -22 10 -19 6 3 10 2 10 -4 0 -16 -38 -33 -45 -21 -5 8
-11 7 -21 -1 -8 -6 -14 -9 -14 -6 0 3 -13 2 -30 -3 -21 -6 -30 -5 -30 3 0 8
-3 8 -8 -1 -5 -8 -16 -10 -27 -6 -10 4 -16 3 -13 -2 4 -5 -7 -9 -23 -9 -16 0
-29 4 -29 9 0 6 -7 1 -16 -10 -8 -10 -13 -14 -9 -7 4 9 -5 11 -32 7 -81 -10
-94 -10 -100 -2 -2 5 -12 1 -20 -9 -8 -10 -12 -13 -9 -7 7 14 -31 26 -39 14
-3 -5 -14 -7 -25 -5 -11 2 -20 -1 -20 -6 0 -6 -5 -7 -12 -3 -17 11 -78 11 -85
1 -3 -4 -14 0 -24 9 -18 16 -19 16 -13 1 7 -20 1 -21 -28 -6 -15 8 -19 8 -13
0 5 -8 -1 -10 -18 -6 -14 4 -28 2 -32 -4 -3 -6 -12 -8 -18 -4 -18 12 -57 10
-57 -2 0 -5 -4 -4 -8 3 -7 9 -15 10 -35 3 -19 -8 -27 -7 -27 0 0 8 -5 7 -15
-1 -10 -8 -15 -9 -15 -2 0 6 -6 10 -12 7 -35 -11 -98 -14 -92 -4 4 7 -1 7 -15
0 -16 -9 -26 -9 -42 0 -12 6 -19 7 -15 1 3 -5 -19 -9 -54 -10 -43 0 -58 3 -53
11 5 9 3 9 -8 1 -17 -14 -49 -14 -49 -1 0 5 -6 4 -14 -2 -12 -10 -13 -8 -9 8
3 12 9 18 14 15 5 -3 6 2 3 10 -3 9 -2 16 3 16 5 0 10 6 11 13 6 44 15 76 23
72 4 -3 6 4 4 15 -2 11 1 20 7 20 6 0 8 9 5 20 -3 11 -1 18 4 14 8 -5 13 18
12 53 -1 7 3 10 8 7 8 -5 14 17 10 39 0 4 4 7 9 7 5 0 9 3 8 8 -2 12 14 66 25
80 5 6 6 12 2 12 -4 0 0 12 10 26 9 15 12 23 6 20 -7 -5 -9 -1 -5 8 3 9 9 14
13 12 4 -3 7 7 6 22 0 15 6 37 13 50 8 12 12 31 9 41 -3 14 -1 18 9 14 10 -4
12 0 7 13 -4 11 -3 15 4 11 7 -5 9 0 6 13 -3 11 -1 20 3 20 5 0 10 10 10 23 3
37 15 81 27 96 10 12 9 13 -2 6 -11 -6 -10 -2 2 16 19 27 22 43 6 33 -6 -3 -3
5 6 19 9 15 14 31 10 37 -3 5 -1 10 5 10 6 0 9 4 6 8 -3 5 2 21 10 37 8 15 12
30 9 33 -3 3 2 17 11 30 16 24 16 25 -2 19 -18 -7 -18 -6 -2 6 10 8 19 24 21
35 2 12 6 24 9 28 4 3 4 12 1 20 -3 8 0 14 7 14 7 0 10 6 7 14 -3 7 1 25 8 40
10 19 11 24 2 19 -9 -5 -9 -3 0 9 7 8 10 18 6 21 -3 4 -1 7 6 7 7 0 11 10 9
23 -2 12 2 21 8 20 6 -1 10 8 9 20 -1 12 5 37 12 56 8 18 12 39 9 47 -3 7 3
18 12 23 9 6 13 11 8 11 -5 0 -2 8 5 17 12 15 12 16 -1 8 -12 -7 -13 -6 -3 7
7 8 10 18 6 21 -3 4 2 9 11 13 13 5 14 9 5 20 -9 11 -8 14 1 14 8 0 10 3 7 7
-4 3 0 17 9 31 9 13 11 21 4 17 -9 -6 -9 -3 -1 12 6 11 7 24 3 28 -4 5 -2 5 4
2 7 -4 14 2 17 13 3 11 0 20 -6 20 -8 0 -7 3 1 9 8 4 13 11 13 15 -3 23 0 36
8 32 11 -7 9 13 -2 32 -5 7 -3 12 3 12 6 0 8 5 5 10 -3 6 0 10 7 10 7 0 19 -9
26 -21z m-5758 -1863 c0 -3 -4 -8 -10 -11 -5 -3 -10 -1 -10 4 0 6 5 11 10 11
6 0 10 -2 10 -4z"/>
</g>
</svg>
